<svg xmlns="http://www.w3.org/2000/svg" fill="none" viewBox="0 0 381 425">
  <defs/>
  <path fill="#000" fill-rule="evenodd" d="M108 0l-1 1h-5l-1 2h-4l-4-1-4 1-1 1h-1l-2 1h-1l-4 2-3 4 5 4h1l2 2 2 2 1 1c2 3 1 6-2 4-1-1-3 0-4 3h-4-2-2c-4-2-14-2-16-1l-2 1h-1l-2 1-2 2-2 1-1 2v1l-3 6c0 4 1 5 4 3l4-1h2l9 1 3 1 1 1 3 1 2 1h1l2 1 2 2 2 1 1 1 2 1c2 1 0 3-2 2l-6-1h-4-5l-6-1-7-1-4-1h-3l-3-1-4-1-1-1-3-1-1-1-2-1-1-1h-1l-4-3c-1-1-1-2 1-2l3-1h4c2 0 3-2 2-2l-2-1-3-1-6-1-1-1c-2 0-7-3-11-7A72 72 0 003 15H0l1 2 1 2c1 1 1 2 2 1h1v1c-1 1-1 3 1 5v1l1 1 1 2 1 4v1l1 2 1 3 1 2c0 1 2-1 2-3l1-1c1 0 4 3 4 5l1 1 4 2a23 23 0 005 5 31 31 0 007 4l2 1h2l1 1 2 1 3 1 5 1 4 1 3 1h3l3 1h9c5 1 5 1 4 2h-2l-7 1-8 1-12-1c-3-1-5-1-5 1l4 3 2 2 2 1v1l12 2c20-1 24 0 24 2 0 1-2 4-5 5l-3 1-4 4-1 2v2l-4 4-4 1-3 1h-3l-4 1-3 1-2 1c-3 1-5 3-3 4s2 2 0 3l-1 1h-1l-1 1-2 1-2 1a38 38 0 00-8 9l-1 2-2 2v2c-2 2-1 11 0 14h6l-5 4c-2 1-3 2-4 5l-1 1c-1 2-2 11-1 12v3c-2 1-2 9-1 14l-1 2-2 3v2 24l1 5v3l1 3a425 425 0 007 23v1l2 2a42 42 0 018 10c1 2 2 3 6 4l2 2 2 2 2 1 4 2 5 2h1l2 1 2 1 3 3c-1 1 0 6 1 7v2l1 1v3l1 3 2 4v4l-1 2 1 2v3l1 4-3 11-1 2v1l-1 1-2 2-1 1-2 2v2c0 2-1 2-2 3l-3 4-3 3-1 1-5 4-3 3H33c-2-2-3-2-3-4l-2-5-1-1h-8l-3 1c-2 0-7 3-7 5l-1 1-1 1-1 1v1c0 2 1 2 2 1l2-1 1-1h5c2-2 1-3-2-3-2 1-4 0-2-1l3-1 2-1 3-1 5 1c2 1 2 5 0 7-2 1-3 0-2-2l1-2c0-2-1-2-2 0l-1 1-1 1c0 2-1 4-2 3l-3 2-2 1-2 2-2 1-3 4-1 1-1 4h1l2-4 5-3 2-2 3-3 2-1h2l1 1c1 2 2 2 3 0 2-2 5-1 5 1l1 2c2 2 2 3 1 4-2 2-5 2-5 0v-1l-1-1c-1-2-2-2-2 0v1c1 1 0 2-2 2s-2 2 0 2v2h-2l-2-1c-2-1-2-3 0-3s2-1 1-2l-2-1h-2v2c2 0 0 2-2 2h-2l-3 2-2 3-1 1c-1 2-1 3 1 5 1 2 3 0 2-1-1-3 1-7 4-7 2 0 2 0 3 3 0 2 1 3 3 3 1 1 1 3-1 3l-2 2-1 2-1 2-1 1v6l1 2c1 3 3 1 3-3 0-2 3-5 4-5h2l3 2c1 2 4 3 7 2l4-2c0-2 2-4 3-3h2l1-1 2-2c1 1 6-2 7-4l2-2 2-1v-1l2-1 2-1h1l1-1h2l1-2 4-2 3-2 2-1h2l1 1 1 1 1 2c3 2 6 2 9-2 2-2 4-1 6 1 2 4 4 3 2 0v-2c1-2 1-3-1-4l-3-3v-1l-1-1c-1-2-4-4-5-3l-1 1-5 1h-2-2c-2 1-2-1 0-3l2-2h1c2-2 5-3 8-2h5l2-1h7l5-2 2-1 3-1 3-1 1-1h1l2-1c2-1 2-2 4-7l1-2 1-1h-3l-2 1a20 20 0 01-6 4l-4 1-3 1H90l-4-1-2-1h-1l-1-2c0-1 1-1 2 1 1 1 1 1 3-2l5-5 1-1h1l2-1h1l3-5v-1-3l1-6v-1l2-4v-2l1-2 1-2 2-1 2 2 6 6 1 2 1 2 1 2 2 4c3 3 4 4 4 7l2 5v1l1 1c2 2 3 3 3 7v8l-1 6v3l-1 3-1 3v3l-1 3-1 2v1l-1 1v1l-3 2a721 721 0 01-9 6h-2l-5 1h-2-2l-1-1-2-1-1-1c-1 0-3 0-4-2l-2-1h-6l-1 1-2-1h-7l-2 1-1 1-2 2-4 4c0 2 2 3 3 2h1l2-1c2-3 4-2 4 1l-5 4-3 3-3 5-1 7v3c-1 4 2 2 4-2 1-2 4-6 6-6l3 2 4 3c1 2 4 2 5 1l2-1 1-1c1-2 4-2 4 0l-1 5-1 1-2 2c-1 1 0 12 2 14l1 3 3 1v-7-4l3-3 1 1c5 2 12 0 13-3l6-6 1-1 6-3 2-1 5-2 5-2h5l3-1 3-1 3-1c-1-1-12 0-16 2h-3l4-4 4-3 1-1 2-2c2-2 3-2 3-1l3 1c1 1 3 0 4-1h6l3-1h2l2-1h1c1-2 3 0 2 1 0 2 2 4 4 2 3-2 4-7 3-9l-1-2-1-2-3-4c-1-3-4-5-8-5l-3 3-1 2-1 1c-1 2-6 3-10 2l-2-1-2-1-1-1c-2-3 1-7 7-10l2-1h1l2-1 2-1v-1l2-1 1-1 2-1a38 38 0 009-9l2-2 1-2 1-1 1-3 2-4v-5l1-6c1-2 1-4-1-3l-2 4-1 3a51 51 0 01-7 9 60 60 0 01-11 9l-2 1-1 1-1 1h-2l-5 1c-1-1 0-2 1-4l1-4 1-4 1-3 2-4c2-2 2-4 1-5v-1l-1-2-1-2-1-1-1-2v-3l-1-3v-1-12h7l8-1h6l11 2 2 1h6l6 1 12 1 7 1 3 1 5 1h2l4 2 1 1 3 2 2 1 3 3-2 2-1 2c-1 1-3 3-5 3h-3-1l-4 2-4 2-2 1-2 1-2 1a53 53 0 01-5 4l-3 1-3 3a83 83 0 00-11 14v2l-1 2-1 3v2l-1 1v3l-1 8v8l1 3 1 2 1 3 1 2 1 2 1 1 1 2v1l1 2a43 43 0 006 6l5 2 2 2 3 2 2 1 2 1h1l1 1h2l6 2h3a28 28 0 0010 2h6l5-1h2l3-1 3-1h1l2-1 2-1 1-1 1-1h1l1-1 2-1h2l1-1h3l3 1 3 1h7a16 16 0 009-1h2l2-1 3-1a88 88 0 015-1 40 40 0 009-6l2-2 1-1 1-1 1-2 1-1 1-1v-1l1-2 2-4 1-2a55 55 0 00-6-33l-1-2-1-1-1-1a39 39 0 00-9-9l-1-1-2-1-1-1-1 1h-2l1-1-1-1-4-2-2-1-3-1-1-1v-3l2 1h5v-3h-2l-3-3v2c2 0 1 1 0 1h-1l-1-2v-1-1l-2-2-1-2v-2h3l7 3h4l3 1 4 2h1l2 1h3c3 2 9 2 11 1l6-1 5-1h1l4-1c4-2 6-2 8-1l7 1 1-4c0-2 1-2-3-5l-1-1-1-2v-2c0-2-5-6-6-4h-1c-1-2-1-3 2-4l4-1 2-1 1-1 1-1 3-2c2-2 4-3 4 0v2c1 2 1 4-1 5v3c1 2 5-1 5-4l1-1v-4l2-9 1-2v-2l2-3v-1l3-4 1-2 1-2 1-1c4-3 2-5-2-3l-2 1-8 8-2 2-2 1-2 1-1 1-4 2-3 2 3 2c1 1 2 2 1 3h-1l-1 1-1 1-1 1h-1c-2 2-6 2-6 2v-2l1-2 2-2c1-3 0-14-2-15-1-1-1-1 1-4l7-5c4-2 0-5-4-4l-6 3h-1l-1 1-2 1-2 1-2 2-2 1-2-1c-1-2-1-2-2-1l-2 1-1 1-1 1-2 1-2 2-4 3-2 2-1 2-2 2-1 3v1l-1 1c-2 4-8 5-12 2l-2-1-2-1h-3-2c-2 1-2 2-1 3s2 1 3-1h3l2 1 2 1 1 1 1 1h7l3-3 1-1 1-2 1-1v-1l1-2 2-1 4-6 3-2 1-1 2-1c2-2 4-2 4 0l-3 3a32 32 0 00-9 10l-1 2v2l-1 1-1 2-1 3v2c1 1-1 3-2 2l-3 1c-1 3-2 3-4 2v-2c3-2 2-3-1-3h-4l-1-1-2-2-2-2-1-1-2-1v2l3 3 4 3v1h-2l-3-1h-7c-2 1-4-2-2-3v-2c-2-2-3-2-5-2a267 267 0 01-6 0c0 1-2 1-3-1a215 215 0 00-5-5l1-2c1 0 2 0 3-2l3-2c4-1 1-5-4-5l-3-1-5 1-4 2-6-6c-2-1-2-2 0-3l2-2 3-3c2-1 1-3-1-4l-2-1h-5c-1-1-3 0-4 1l-2 1-1 1c-2 1-4 1-6-1l-1-1-2-1h-2l-1-1-1-1-2-1 1-1 3-3 1-3c3-1 1-2-2-3l-3 1-3 1c-3-1-7 1-9 3l-2 1c-2 0-2-2-1-3l1-3c-1-1 0-4 2-6l1-2a24 24 0 018-7l15-1 1 1 5 3 2 2 1 1h1l4 1h4c1-1 1-2-1-3h-1l-1-1c-1-2-2-3-1-5l-1-2-3-3h-1l-1-1-1-1-1-2-1-3-1-3v-1l1-2c0-2 1-2 2-2l4 1 4 1h1l5 2h1l1 1 4 2 3 1 1 1 5 3 1 1 2 3v2l1 2 1 1 1 1 3 2 4 2c2 2 2 3 3 2l2-4-1-3-1-3v-2l-3-4-2-3-1-2-1-1-1-2v-2l-1-1-1-2-1-2-1-1v-1l-1-2-1-2-1-1-1-1-1-1-1-2-1-1-1-1-1-1-1-1v-2l3 2 3 2 2 1c3 2 5 2 7 1v-4l-2-3v-3l-1-1-4-2c-1 0-2-1-1-2v-4l2-2c3-3 5-4 7-4h3l2-1 7 7a190 190 0 0014 14 82 82 0 003 3l2 4 3 3 1 1 2 4 1 1v1l2 3 4 3h1l1 1 5 4h4c2-1 2-6 0-8l-1-2v-1l-1-2-4-3-2-3-1-1-3-5-2-2-1-2-1-2c-1-2 1-5 3-4h2l2 2a43 43 0 007 5l3 2c3 3 3 3 5 2v-3l-3-4-1-1-1-1-1-2v-1l-4-4a39 39 0 01-9-11l-1-2-1-1v-1l-2-2-1-2-1-1-1-2a75 75 0 01-9-12l-4-4a102 102 0 00-7-8l-4-5-3-2-7-7a303 303 0 01-22-20l-1-2-4-3-3-2-3-3-2-3-2-1-2-2-7-5h-1l-1-1h-2l-2-1h-3c-6-2-9-2-12 0h-4l-2 1-1-1-2-1a22 22 0 00-10-5h-4c-4-1-6-1-8 1s-2 2-2 7l-1 3v2c0 2-4 7-8 10l-6 4-3 1h-3c-2-2-2-3 0-5 3-1 1-4-2-3h-2l-1 2-1 3-1 6a1218 1218 0 007 37l-2 4-1 5-2 3c0 3-6 10-7 10l-2 1-3 3-2 1-4 2a50 50 0 01-8 4l-5 2-1 1h-1l-6 3-4 2-4 1-1 1-2 1v1h-1c-3 0-3 0-4-2-1-3-1-4 1-6l1-1-1-1-2-1h-4v-2c-2-2-3-8-3-9l4-1 3-1v-2h2v1l-1 1v1l2 1h2l-2-3v-1l-1-2-2-3-2-1c-2 0-3-1-2-3l2-2c1-4 5-7 6-4l3 1c1 0 2 0 3 2l2 1v-3-2l-1-2-1-1v-1l-3-4 1-2 4-4 1-1 1-2c2-2 4-3 5-2l4 2h2c2 2 3 2 3-2l-1-3v-1l-2-2c-2 0-2-2 0-3l1-2 1-2 2-3c1-2 2-2 4 0 1 2 2 2 3 2l3 1c1 0 3-1 2-2l-1-1-1-1v-1l-4-4v-4l1-1v-1l1-2v-1l2-6c0-3 1-4 3-3l6 1v-3c-3-4-5-5-7-5-2 1-2 0-1-1l1-2 1-4v-1c-1-2 0-3 3-1h7v-2h-3l-1 1v-2c1-1 0-1-1-2-2 0-3-2-1-3l1-1 1-1-3-2h-1l-2-1-1-1-4-3-2-2 2-2h16l7-3v-2l-1-1-1-1c-3 0-9-3-9-5l-1-2-1-1c0-2 0-3-3-4l-1-1v1c2 2 1 5-1 3v-2l-2-1-2-1h-6c-1 0-2 0-1-2V5l-1-1c-1-3-10-4-13-1-1 2-2 2-3 1l-2-2-4-1-4-1zm4 3l2 1 2 3 3 1 3-2c2-3 3-3 4-3h3c2-1 4 4 3 6l-2-1a662 662 0 00-2-2l-4 2-3 3-1 1-4-2c-2-4-6-6-8-5l-2 1c-2 0-2 1-1 1v4l-2 2-1 3-1 2-2 1v-1-3h-1-1v-1l-1-1-1-2-1-2c-1-1-2-2-3-1l-3 2-2 1-2 1h-2l-2-2 2-1 5-1 1-1 2-1c1-1 2-2 4-1a169 169 0 002 2l1 1 1 1 3 2c2-1 3-3 1-4-1-1 0-3 1-3h3l3-1h3zm-3 6l-1 4-1 3 1 1c-1 1-2 0-2-1 0-5 2-11 3-7zm3-1l1 3v3l1 2c1 2 3 3 3 1l1-1h1v-1l1-1c0-1 0-2 1-1l-1 4v3c1 2-2 2-3 0h-3-3c-1-1-2-3-1-4v-5l1-3h1zm22 4l2 1h6l-1 2h-2l-2 1-2-1-1-1-2-1c-2-1-1-3 1-3l1 2zm-18 0l1 1v3l-3-4h2zm-25 0l-1 1v-1h1zm-3 2l2 1h1c0-2 0-2 2-2 1 0 2 1 1 2v1l3 2-3 2-1 1c-1 1-3-1-3-3l-1-1-1-1-1-1-1-2c1-1 1-1 2 1zm39-1l-1 2-1 1-1 2h-1l-1 2v-3l1-1 3-4 1 1zm3 2l1 1v2l-1-1v-1l-3 3-1 1-1 1h-1v-1l1-1 1-1 1-1 2-3 1 1zm7 2l-1 1-1 1c-1 1-1 0-1-2 1-1 3-2 3 0zm4 0l-1 2h-2c-1-1 2-3 3-2zm9 1l-2 2-1-1 3-1zm-21 4l1 2 1 1h1l-1 1-2-1-2-2c0-1 0-2 2-1zM9 23l2 1v1l6 6 3 1c1 2 5 4 7 4 1 0 2 1 0 1l-1 1h-5l-1 1v-1c1-1 0-1-1-1-1 1-2 1-3-1l-2-2-1-2-1-1-2-2c0-1 0-2-1-1v1-2c1-1 0-2-1-3l-1-2 2 1zm99-1l2 1h2l2 1 2 1h3l4 1c2-1 3 0 2 1s0 1 2 1c4 0 6 3 2 3h-3l1 1 3 2 2 2 1 1 1 1 3-1-1-1-2-1-1-1v-2l2 1 1 1 2 1 1 1h1l-1 1-1 2h1l3 3 2 2 2 1 2 1v2l-2-1h-2l-3-3a1063 1063 0 01-3 0v2l-1-1-1-1-2-2-1-2-1-1-4-3v1l5 6v4l-3-4-6-7-2-1 1-1 1-1c1-2 1-2-1-2h-5c-1 1-4 1-4-1l-2-1-1-1c0-1-2-2-3-1s0 2 1 2c2 0 2 1 1 1h-2l-2-1-2-1-3 1h-5l3 1c2 0 3 1 1 2h-9v1l-1 1v-2l-1-2-1-1 3-4 1-1h2l2-1h5l4-1h3zm30 2l-2 2c-1 1-2 3-4 3l1-2v-1l1-1 1-1h3zm-5 0l-1 1v-1h1zm8 1v2l-2 1-3 2 2-3 2-1 1-1zm-73 4h3l2 1h3c4 1 6 2 6 4l1 3 1 2v1l1 2 2 1 1 2 1 2 2 3 3 2 1 1 1 2a31 31 0 0111 11v4h-2l-1-3-1-2c0-2-4-7-7-8h-1c-1-2-5-4-6-4h-1l-1-1-2-1a60 60 0 00-8-6l-2-1-2-1h-1l-1-1h-1l-1-1-3-1-3-1H53c-4 1-6-2-3-4l1-2 5-3h1l5-1 4-1 2 1zm18 1l1 2v1l1 2v1l1 2 1 3 1 1 1 2c2 2 3 4 2 5l-3-4-2-2-1-2-1-1-1-3-1-2-1-2v-4c1-1 1-1 2 1zm18 2c2 1 0 2-2 2-1-1 0-2 2-2zm-35 1v1l1 2 2 2 2 1v1l4 1v-1h-1l-3-5a128 128 0 00-3-2h-2zm51-1l1 1h-2l1-1zm-3 3a269 269 0 006 3l1 3-4-2-2-2-2-1h-1c-2-1-2-1-1-2l3 1zM13 37l-1 1v-3l1 2zm91 0v2l2 3 3 3c2 0 3 0 5-2 1-2 3-3 3-1l-2 5-1 1-4 1h-1l-2-1-2-1-5-6c-1-3 0-5 4-4zm7 0c1 1 0 3-2 4l-2-2c0-2 2-3 4-2zm-30 1v1l1-1h-1zm63 1h-2c-1-1-1-1 1-1l1 1zm-51-1l-1 1 1-1zm-78 4h-1c-1 0-2 2-1 3l1 2 1 2 1 2c1 1 3 4 5 4l1 1 3 3c1 0 1-3-1-4l-1-2s0-1 0 0c-2 1-3 0-5-3l-1-3 3 3 2 1-2-5-1-1-1-1-2-1c0-2-1-2-1-1zm9 0l2 1 2 2 2 1 3 2 3 1 2 1 1 1 4 1 3 1 3 1 5 1 7 1h4l1 1h10l4 1h2l2-1h2l2-1 2 1c3 0 4 2 1 2h-2l-1 1h-2c-2 2-6 2-8 0h-1l-2 1h-6l-2-1h-2l-3-1h-3l-5-1h-4l-3-1-5-2h-1l-1-1-2-1-3-1-4-2-3-3-3-3-2-3 1 1zm58 0v1 1l1-1v-2l-1 1zm12 0l1 1 2 1 1 1 1 1c0 2 1 2 1 1v-1l1 1 1 2 1 1c-1 1 2 2 4 2h3l2-1 1 1h3c2 0 3-1 3-2l2-1h1l1 1-2 2v1h-1l-2 1-1 1-3 3 1 1 1 1h-2l-3 1c-1 2-4 0-4-2s1-2 2 0c1 1 2 1 4-2 2-1 1-3-1-1l-2 1-1-1-2 1-1 1-2-1h1v-1l-2-3-2-2-1-1h-1l-1-2a196 196 0 00-4-5v-1zm32 1v2l-1-1 1-1zm-26 1h-1v-1l1 1zm20 1l-1 1-2 1-1 1 1-1 1-2h2zm-36 1l2 4h1v-3l-2-1c0-2-1-2-1 0zm-68-1h-1 1zm109 1c1 2 0 2-2 2v-2h2zm7 3l1 1v3l-1-1-2-1-1-3 3 1zm-6 1v1-1zm-28 1h-1v-1l1 1zm2 2h1l3 3c0 2-3 1-5-2-2-2-1-3 1-1zm24 1h-1l1-1v1zm-9 0zm4 2l1 1v1l1 1 2 2h2l2-2c0-2 1-2 2 0l1 2-1 1h-2l1 2c-1 2 1 4 2 3 1-2 2-2 2 0-2 0-3 2-1 2l1 2 1 1c2 2 1 6-1 6l-1 1h-2l-1-1-4-4h4v-1l-1-2h3l-1-1-2-1-1-1v-3-1h-1l-2-1-1-1h-1-1l1 2 1 2v2l-2 1-1 2v1c-3 1-3 2-2 3 2 0 3-1 3-2 0-2 2-3 3-2s1 2-1 2-1 1 2 4c4 3 4 4 3 5l1 1c2 4 2 4 0 6l-1 2-2 2-2 1c-1 2-2 2-4 1l-1-1-4-3 1-7v-3l1 1 1 1c1 2 2 2 2 0l1-1v-2l-1-1h-2-1l-2 1-1 1-1 1c0 1 0 2-1 1l-2-1v3h-1v1l1 2c1 1 1 0 1-1l2-2 1 5 1 3v5l-2 1-1 3c0 2-1 3-2 3l-2 2c-1 2-3 3-7 3h-4c-2 0-3 0-4-2l-2-1h-2l1-3c2 0 1-2 0-2h-1l-2 1h-4c-3 0-3 0-3-2v-2c-2-1-2-3 0-4l1-3 3-2c3-1 4-2 3-3s0-2 1-2l1 1h1c1-2 3-2 3 0v1l-1 1-1 1-2 2-2 1-2 1-1 2v1l-1 1h3v1l-2 1h3l2 1v1l1-1v-2l1-1 1-1 1-2 1-2v-2l1-1v1c2 2 3 1 2-1l-1-2v-2l-1-2c0-3-4-9-6-9h-2l-4-1-6-1h-5l-6 1h-6a84 84 0 00-6-1l-2-1v-1h7l6-1h5l3-1h4l5-1c5-1 16 0 18 1l1 1 1 1 3 1v2h-2a34 34 0 00-7-3l-4-1h-4l-3 1h-2l2 1 5 1 2 1 4 4 1 2 1 3v2l1-2 2-1 1 1v-3l-1-2c0-1 2-1 2 1h4l1-1 1-2c3 0 3-1 1-2v-1c0-1 1-1 3 1h2v-2l-2-1v-2c-1 0-2-2-1-3l1-1v-1l3 2v2h-3c0 1 3 3 5 3v-1h1c1 0 2-2 1-3l-1-2s0-1 0 0c-1 1-1 0-1-1l1-2c2-1 2-2 0-2s-2-1-1-2l1-1h1zm77 2c3 1 3 2 2 3l-4-1-2-1-1-2c1-1 3 0 5 1zm-62 0h1l1 1 2 2v2l-3-1-2-2c-2-2-2-4 1-2zm71 2c3 1 4 3 2 3l-2-1-2-1c0-2 0-2 2-1zm-13 1c2 3 3 4 1 5l-2 1-1-1-2-2c0-4 2-5 4-3zm-99 0c0 1 0 2-2 1l-2 1h-2l1-1 1-1h4zm134 1l-1 2c-2 0-3 2-1 2 1 1 2 0 3-1h4v3c-2 0-1 1 1 1 3 0 4 1 5 2h1v1l-1 1v1c2 0 2 2 0 3v1c2 0 6 4 6 5 0 2-3 4-4 3h-2l1 2h2l1 1 3 4-4 2-2-1c-1 1 0 2 1 2h1l1 2 2 1 2 1c1 1 0 2-1 3h-6l2 1 1 1 4 4-3 2c-1 0-2 1-1 2s2 0 4-1l3-1 1 2 3 2c1 2 2 1 1-1l-1-1 1-1c2-3 7-1 6 2v1c-1 1-1 2 1 3l2 2 1 1 1 1 2 1h1l2 2 4 5 1 1 2 2 3 3a124 124 0 0115 14 368 368 0 0143 50c-1 1-1 1-5-3l-2-1h-3l-2-3v-1l-1-1v-1l-1-2-1-2-1-1-1-1-2-3-3-4-4-3a562 562 0 00-34-33l-3-3-2-1-2-2a121 121 0 00-11-8l-6-5c-2-2-3-2-4 1l-2-1-2-1v-1c-2-2-7 1-7 3l1 1 1 3c-1 1-2 0-4-2l-2-2v-8l1-2c1-1 2-1 1-2l-1-13v-2-2l-1-1v-4l-1-2v-3l-1-3-1-2v-1l-1-1v-2c-2-4-4-5-7-5l-3-1c-1-1-2 0-3 1s0 2 1 2h1l-2 4c-1 1 1 5 3 4h1c-1 2-2 2-4 1h-3l-1 1c-1 1 0 3 1 2l1 1h1l2 3h1l3-2c0 3-2 6-4 4h-1l-3-1h-1l-2-1c-1-1-2 0-2 1l-1 1v2h2l1 1 1 2 2-1 1-1h1c1 0 2 1 1 2l-1 1-2 1-2-1h-1l-1-1h-3l-1 1-1-1h-2v2c1 2 1 3-1 3s-2 1 0 3l1 1c0 3-3 3-5 2v-3-2l-2-1c-2-2-3-1-1 1 1 1 1 2-1 3-1 1-4 0-6-2-1-1-3 0-2 1v1 5l-2 1-1 2-1 2v1c1 1 0 2-1 2-2-1-2-1-2 1h-4c-1 1-2 1-2-1l-1-2v-2c0-1 1-1 2 1h3l2-1c1 0 3-7 1-8l-1 1v3l-4 3h-1v-2l-2-3c-2 0-3-4-2-9 0-2 2-3 2-1v2l2 1c0 2 3 3 3 3l2-2 1-2 5-1 6-2 2-1 1-1 3-2 4-3a184 184 0 017-7l1-1 2-3 1-2 1-3 1-2v-2-2c0-2 0-3 2-3l2-1h1l2-1h5zm-79 2c0 1 0 2-1 1-1 0-2 0-1-1h2zm52 0v4h-2l-2-3 1-1h1l2-1v1zm-66 0h-1 1zm73 1l1 1v1h-2l-1-1c-1 0-2-1-1-2l3 1zm5 0c1 1 0 2-1 2l-1-2h2zm27 1a70 70 0 015 3l2 2 1 2 2 1 2 2 1 1v3l-3-1-3-1c-1 1 0 2 1 2l2 1 2 2c2 1 2 2 2 3v3h-4l-1-1-1-1c-2 0-2-2-1-3v-2a438 438 0 01-2-4v-1l-2-3-1-3h-1l-1-1-4-6 4 2zm-119 0v0zm70 2v2l-1 1c1 2 0 3-1 3v4h-2c1 1 0 2-2 2h-1v-3l2-2 1-1v-1l1-2 1-2 2-1zm-50 2v1h-1c-1-1 0-2 1-1zm-62 0l1 1 1-1h-2zm60 0l-1 1-1-1h2zm58 0l1 1 1 2c2 2-2 2-4 0-1-1 0-3 2-3zm9 1c1 1 1 2-1 2-3 1-5-1-3-2l2-1 2 1zm6 0l-1 2-1-1 2-1zM95 72c2 2 2 3 1 3l-2-1-1-1c-2 0-1-2 1-2l1 1zm140 0h0zm-95 1c1 1 1 1-1 1-1 0-2 0-1-1h2zm-9 1l-1 1c-2 1-2 3-1 3h2v-1l1-2v-1c-1-2-1-1-1 0zm95-1v4c2 1 1 1-1 1h-2v-2l1-1c0-2 1-3 2-2zm-11 1l2 2-1-2h-1zm-104 1v2l1-1-1-1zm96 1l-2 2v-2h2zm-13 1v2l-1 1-1 1c-2 0-2-2-1-3l1-1h2zm6 0h1c1-1 2 0 1 1v1l-3 1c-1 0-3-3-1-3h2zm-90 0l-1 1 2-1h-1zm28 0v2-2zm76 1s0 2 1 1v-1h-1zm-93 1l2 1-1-2-1 1zm61 0v1l1 2v2h-1l-2 1-2-1c-1-1-1-3 1-4l1-1h2zm46 0c0 2-2 4-4 3-1 0 0-2 2-2l1-1h1zm-121 1c1 2 2 3 2 1l-1-2-1 1zm149 0l1 1 3 4 1 1c1 1 0 5-2 4l-3-3-1-1h1l1-1h-1l-1-1v-1c-1-2 0-5 1-3zm-153 0v1l-1 1-1 1-1 1v7l1 2v1h1v3l1-1-1-2-1-6 1-1 1-2v-2c0-1 2-1 2 1 1 1 2 1 2-1l-1-1-1-1-2-1zm20 1l-1 1 1 2c1 1 1 1 1-1s0-3-1-2zm115 0l1 1v-1h-1zm-76 0l1 2 1 2 1 2-1 1c-2 3-4 2-4-4 0-3 1-4 2-3zm36 2v2l-2 2-1 1v-1l-2-1c-1-1-1-3 1-3h4zm-9 0v3c-1 1-3 0-2-1v-2c-1-1 0-1 1-1l1 1zm-13 0l1 1 1 1c1 1 0 2-2 2-2-1-5 2-5 4h-1c-1-1-2-1-3 1 0 1-4 3-5 2v-2l1-1 1-1 1-1 2-2 1-1 3-1h1l2-2h2zm54 2c0 2 0 2-2 2-1 0-2-2 0-3l2 1zm-34 0l1 1v-1h-1zm53 0l1 1v-1l-1-1v1zm17 3a133 133 0 0114 14h-1l-1-1-1-1-1-1v-1h-1l-2-1-2-2a535 535 0 01-5-7zm-143 0l-1 1c-2 2-1 3 1 1l1-2h-1zm61 0l1 2h-2l-1-1h-1l1-2 2 1zm61 0h-1 1s1 0 0 0zm-104 0l-1 2-1-2h2zm84 0l1 1h1l3-1c1 0 2 2 1 3s-4 0-4-1h-1c-1 1-2 1-2-1l1-1zm-33 1v2l-2 1c-1 2-4 0-3-2h1l3-1h1zm-13 2c1 1 0 2-1 1h-2v-3h1l1 1 1 1zm70-1c3 3 3 4 3 5v1 1c2 1 1 3-1 3-3 0-6-5-4-6 1 0 2-1 1-2-3-3-2-5 1-2zm8 1l2 3 2 2v2l1 3 1 2-4-1h-1l1 2v3c-1 2-3 1-2-1l-1-2-1-3 1-3v-2-1-1l-1-1-1-3c1-1 1-1 3 1zm-152 0l1 1v-2l-1 1zm111 0c0 1-1 3-2 2v-2h2zm47 0l4 3 1 1h1l2 2a204 204 0 009 8 113 113 0 019 9v1l-6-4-3-3-4-4-3-3-6-5-2-2-4-2v-2l2 1zm-154 0v2l1-2h-1zm-12 1v2l-1 3c-1 0-2 0-1 2 0 2 2 2 2 0h1c2 1 2 1 2-2l-1-3-1-1-1-1zm127 1l1 1 1 2h-2l-1-1c-1 1-1 2 1 2v2h-2l-2-1-1-1 1-1 1-1 1-1c0-2 1-3 2-1zm-55 1v3c-2 1-2 1-1 3v1c-3 0-4-3-2-4l1-2 1-2 1 1zm12 0v1c-1 1-2 0-1-1h1zm50 1c1 1-1 2-2 1v-2l2 1zm-122 0h-1l-1 1-1 1a1252 1252 0 01-3 5c0 2 0 2-1 1l-2-1 1 3h2l1-1 1-1 1-2 3-4v-1l1-1h-1zm68 0l1 1c0 3-2 3-3 0-1-2 0-2 2-1zm-83 0v0zm172 4l3 2 4 4a58 58 0 0010 9 130 130 0 0010 8 263 263 0 0013 14l3 3h-1l-3-3a419 419 0 01-34-31 67 67 0 01-7-5l-1-3c1-1 1 0 3 2zm-56-2c2 1 2 2 1 3l-2 1c0 2-3 3-4 2s0-3 1-3l2-2 1-1h1zM75 97v3l-1 1 2 2 2 2 1 1 2 3 1-1h2v2l-2 1-3 3v-2l1-2-2 1-1 1-1 1-4 1c-2-1-4 0-4 1 0 2 0 2 2 1h3l-3 3h-3v2l-2 3-1 2v1l-1 2-1 6-1 3-3 4v2c1 2-2 3-4 2v-9a956 956 0 010-5c0 3-2 3-3 0l2-2 1-2h4l1 2 1 2-1-3-1-2v-1c-2 0 0-3 1-3l2-1v-2l-1-1v-2l2-1 2-1h2l1-1 2-2v-1l1-1 1-1 4-5v-1l-2 1a21 21 0 01-7 5l-4 2c-3 0-3 1-1 3v1l-4 3-1 1v1l-4 6-1 2-1 2-1 3c1-1 3 2 3 3 0 2-2 3-2 0h-2c0 1 0 2-1 1h-2l-2 2-1 2-1 1c-2 1-2 1-1 2s5 2 6 1c0-1 1 0 0 0v1l-3 2h-6l-1-1c-1-1 0-2 1-4l1-3-1-2 1-2 1-2 1-2 3-6 7-7a14 14 0 003-4v-1l-3 2-1 1-5 4-5 4a63 63 0 00-5 4c-1 0-2 1-1 4l-1 4c-2 0-2-4-1-8l1-2 1-2 1-1 1-2 2-1a51 51 0 019-8l3-1 1 1v-1l-1-1h1l3-1c0-2 4-2 4-1 1 2 2 2 2 1l4-5 1-1 1-1 1-1h-1l-2 1h-1c-4 3-11 3-9 0v-1h2l5-1c4-2 7-2 7-1h2v-1l-1-1h5l2-1zm154 2l2 1c1 0 2 0 1 1h-3-2v-2h2zM91 99l2 2-1-2h-1zm128 0l-1 3-1 1h-2v-2l2-1 2-1zm-148 3c-1 1-1 1 1 1l1-1h-2zm22 0l1 2v-2h-1zm4 0v3l1 1h2l-1-1-1-2-1-1zm70 1c2 1 3 3 0 3-1 0-3-1-3-3h3zm86 2c1 1 2 2 1 4s-3 2-6 0v-3l1-2c1-2 2-2 4 1zm-126-1h-2l2-1v1zm-59-1v2l2-2h-2zm155 1h-2c-1-1-1-1 1-1l1 1zm6 0v2c-1 1-1 0-2-1 0-1 1-2 2-1zm-16 2c1 2-2 3-4 2l-1 1 1 1 4 1h2v-1c0-2 2-3 2-1 1 1 0 2-1 2l-1 1-2 1-2 1-3-3-1-2c-2-2-2-2 0-2l2-1h4zm-121 0c-1 0 0 1 0 0s0-1 0 0zm104 1l1 1v1c0 2 0 2-2 1h-4c-1 1 0 2 1 2l3 1c1 1 0 3-1 2l-2 1v1h-1l-1-1c-3 0-4-4-1-6v-2c-1-1-1-2 2-2h3l2 1zm37-1v2c-1 1-3 0-2-1l2-1zm-9 1l2 1 1 1h2l2 1v1l2 1c0 2-1 3-2 1l-3-1h-1c0-2 0-3-1-2h-2l-1-1c-2-1-2-3 0-3l1 1zm-110 0l-1 1h-1c0-1 1-2 2-1zm154 0l1 1 2 1h-2l-1-1-1-2 1 1zm-192 1l-1 1h1l2-2-2 1zm191 2a24 24 0 003 3 1001 1001 0 0038 34l1 1 2 1-1-2-1-1-2-1a51 51 0 01-4-5l-1-1a571 571 0 013 0l4 4a58 58 0 002 3l1 1c1 0 1 2-1 2l1 2 1 1h2v-1 2l2 3a25 25 0 014 5l1 1h3l1 1c2 2 1 2-1 3-1 1-2 1-4-2l-1-1v-1l-2-2-2-2-7-8a584 584 0 01-37-33l-3-3-3-2-3-3v-1c1-1 1-1 4 2zm-98-1l1 1c0 2-2 3-4 1-1-2 0-4 2-3l1 1zm119 0v1l1 1 1 1 4 4v1l-1-1-1-1-1-1h-1v-1l-1-1-1-1-1-1v-2l1 1zm-83 1v2l1 1-1 2c-1-2-5-3-5-2h-2c-1-1 1-3 3-3l1-1c1-1 3 0 3 1zm-94 1l-1 1 1-1c0-1 1-1 0 0zm112-1l1 3-2-1c-2-2-1-3 1-2zm-169 3v1l2-1h-2zm55-1v1h-1l1-1zm118 2h-1l1-1v1zm38-1l2 1 5 5a92 92 0 016 5l9 9 3 2 4 4a445 445 0 0027 26l2 5-3-2-1-1-1-1a374 374 0 00-44-43 559 559 0 00-10-9l1-1zm-171 2c1 2 2 2 2 0 0-1 1-2 2-1l-1 3-1 2-1 2h-1v2l-1 4c0 1 2 1 2-1l2-5 1-2 1-1 1-1 1-1v3l-1 1-1 2v2l-2 3-1 2v3c-2 0-3-1-3-3l-1-1c-2 0-1-8 0-10v-2l-1 1c-1 1-2 0-1-2s2-2 4 0zm76 0v2l-3-3c1-1 2-1 3 1zm52-1l2 1 1 1c0 1-1 2-4 1l-2-1c-2-1-2-2-1-2h4zm-135 0v2c-1 2-1 3 1 3v2l-1 2c-1 1-3 1-4-1l-1-2-1-3h2v0c0-1 0-2 2-2l2-1zm-40 0v1h1l-1-1zm59 2l1 1-3-1 1-1 1 1zm109 0l2 1 2 1h2l3 2 3 1 3 1 3 3h-3l-2-1-1-1-2-1-2-1h-2l-2-1c-1-1-4-2-4 0h-3l2-1v-1h-2-2l1-1 1-1h3zm-27 0l1 3c-1 1-3 0-3-1v-1c-2-1 0-2 2-1zm14 0h-1s-1 0 0 0h1zm63 2c2 2 2 3 1 3l-1-1-1-1-1-2 2 1zm-36 0l2 1v1h-2l-2-1c-2-1-2-2 0-2l2 1zm64 0l1 1 1 1 1 1-3-1-1-1v-1h1zm3 0v1l-1-1h1zm-125 2c0 1-1 2-3 1-1-1 0-3 2-3l1 2zm-78-1l1 2v-2h-1zm100 0c0 1-2 2-3 1v-1h3zm-140 0v0zm22 0v2c-1 1-1 3 1 4v8l-2 4-1 2h-2c-2-1-4 0-3 4l-1 2v2c0 1 1 1 1-1l1-1v2l-1 1 2 2-1 4-1-1-1-2a90 90 0 01-3-3l-1-2v-2c-1-1 0-3 1-4l1-2 1-3h1v-4l1-4h1c-1-1 0-4 1-5l2-1c1-2 4-3 3-2zm107 1h1l-1 1-1 1c-2 1-3 2-1 2l1-1 4-1c1 1 0 2-1 3l-1 1v1l-1 1-1 1-1 1c-2 0-2 0-1 1h5l1 1c1 1-3 6-6 5l-1 1a83 83 0 01-1 3l3-1c1 1 1 2-2 4v2l2-1c0-2 3-2 4 0l1 1c2 0 2 2 0 3-4 2-6 2-7 0l-1-2c0-1-1-2-3-2s-2 1 0 3 0 5-4 5h-7l-3 3-1 1-2 1-2 1-2 2-2 1-1 1-2 1-2 1-2 1-1 1c-1 0-2 1 0 1 1 1 1 1-1 3l-2 2-1-3v-1l-1-1-1 2c0 2-1 3-2 2h-1c-2 1-1 1 0 2 2 1 2 1 1 3-2 2-4 1-5-2v-1l2-3 4-3 2-2 3-2 3-2a263 263 0 0126-20 86 86 0 014-4v-1l2-4v-2-3-2-2c-1-2-1-2 2-3l2-1h2zm118 2l3 3 2 2a86 86 0 018 11c2 2 4 4 3 5l-1-1-1-1h-1l-3-4-1-2-1-1v-1l-3-3a619 619 0 01-8-10v-1l1 1 2 2zm-197-2l-1 2v-2h1zm107 0l1 1 1 1 2 1h1l2 1 1 1 2 1 2 1 1 1 2 1h-3l-2-1-2-1-1-1h-2a420 420 0 00-8-6h3zm-131 2h-2l1-1 1 1zm28-1v1h-1c-1-1 0-2 1-1zm91 1h1c2 0 3 2 2 3l-1 1c-1 2-4 3-6 2l1-2c2-1 2-2 0-2v-2h3zm20-1l-1 1h-1c0-1 1-2 2-1zm-167 1c-1 0-1 0 0 0 0 1 0 0 0 0 0-1 0-1 0 0zm118 1c1 1-1 3-2 2v-2h2zm52 0h2l1 1 2 1 2 1c1 0 2 1 1 2l-3-1-2-1-2-1-1-1-2-1h2zm-172 0l-3 4h1l1-1 1-1v-1l1-1h-1zm62 0c1 1 0 2-1 1v-1h1zm177 0l1 2v1l-1-1-1-1-1-1h2zm-97 1c0 2 0 2-2 1v-2l2 1zm-109 0v3c0 2 1 2 2 2v3c-1 2-1 3 1 3 1 0 1 2-1 4l-1 1h-1-2v4l1 1c-2 2-2 3-1 3l1 2c1 1 1 1 1-1s0-3 1-2l1 1v3 3c1 2 1 4-1 5s-3 0-2-1v-3l-1-1-1-2-1-2-1-2v-5-1-2l1-2v-4l1-3 1-3v-2l1-1v-1h1zm-9 1c-1 2 1 4 2 3l-2-3c0-1 0-1 0 0zm137 0l2 1v2l-2-1-1-1-1-1h2zm63 0l2 1 1 1v1l2 1 1 1 2 1a135 135 0 007 7l5 5 2 2 2 1 1 2 2 2c0 2-2 0-9-7a145 145 0 00-18-17l-1-1h1zm-16 2c2 2 3 2 1 2l-1-1-2-1-1-1v-1h1l2 2zm-9-1l1 1h1l1 1 2 1 1 1 2 1 1 1 2 1 1 1 1 1 2 1h2l1 1 2 1 1 1 2 2 2 1 1 1 1 1 1 1 2 2h1l2 2-3-1-4-3h-1l-2-1-1-2-2-1-2-1-1-1-1-1-2-1-2-1-1-1-2-1-1-1-2-1h-1l-2-1-1-1-2-1-1-1-2-2h3zm-80 3h-2v-2c1 0 2 0 2 2zm-78-1v5l1 3v2h1v4c-2 1 0 5 1 4l1 1h-1c-2-1-1 2 2 6l2 3h-1l-1-1-2-1-4-4a305 305 0 01-1-3c-1 0-2-2-1-3l1-2v-4l-1-3v-3-2c1-3 1-3 3-2zm143 1l2 1h1l1 1 1 1h-2l-1-1-2-1h-1l-2-2 3 1zm-42 0l2 1 1 1v2l-1 1c-3 2-6 1-4-1v-1c-2-1-2-2 0-3h2zm18 1l2 1h2l1 1h1l1 1h1l3 2h1l3 2 1 1h1l2 1 1 1 2 1 2 1 3 2 2 1 2 1 2 1 3 2c2 2 3 2 4 1h2l-2 1 1 1 1 1 1 1 2 1 1 1h1l1 2 4 3 2 2 2 1 1 1 2 1c2 3 3 3 5 3 3 0 6 3 6 4l1 2c3 3 2 5-2 3l-2-1-4-3-2-3-1-1-4-3-2-1-2-1-1-1-2-1-2-2-2-1-1-1-4-2h-1l-4-3-1-1h-1l-2-1-2-1-1-1-2-2h-1l-2-1-2-1-1-1-2-1h-1l-2-1-2-1-1-1-2-1h-1-1l-2-1-1-1h-1l-2-1-4-3 1-1c2 0 2-1 0-1l-2-2h3zm36 0l2 1 2 1 1 1 2 1 2 1 1 1c0 2-2 2-3 0l-1-1-2-1-2-1h-1-3v1l1 1 2 1h2l1 2h2l1 1 2 1 2 1 2 1 1 1 1 1c1 0 2 0 1 2 0 1-1 1-2-1l-1-1c-1 1-2 0-2-1h-1l-2-1-2-1-1-1-2-1-2-1-1-1-1-1-2-1-2-1 2-1h1v-2c-1-2 1-2 2-1zm-207 0c0 2 0 3-2 3-1 1-1 1-1-1 1-2 3-3 3-2zm165 1c1 1 1 1-1 3l-1 1h-2l-2 1c0 2 1 2 4 1l2 2c0 2-4 3-5 2l-1-1-2-1-1-1-1-2 1-1 3-1 1-1v-2l2-1 3 1zm27 0l1 1h1l2 1 2 1 2 1 1 1 4 2v2l-2-1-1-1h-1l-2-1-1-1-2-1-2-1-2-1-1-1h-1l-3-2 5 1zm-159-1v1l-1 2c0 2 0 3 2 3l1-3c0-2-1-4-2-3zm94 2c2 1 2 3 0 3-1 0-2-2-1-3h1zm5 1v1l-1-1h-1v-1l2 1zm29-1l2 1v-1h-2zm-152 1l1 2 1-1-2-1zm164 1l2 1 1-1h-3zm-117 0v2h-1v-1l1-1zm-13 0c-1 2 0 3 2 3 1 0 1-2-1-3h-1zm147 0v1l-2-1h2zm-13 1c0 1 1 2 2 1l-2-1zm16 1c1 1 0 1-1 1l-2-2 3 1zm-61 1v2c-2 0-3-1-2-2h2zm19 1h2c2 1 2 3-1 3v2l2 1h2c-1-2 1-2 4 0s4 3 2 3l-2 1-3 1h-2l-1-1-2-1v-1c0-2-1-2-2-2l-4-1c-1-1 0-4 1-3 2 0 1-1 0-1-2-1-2-1-1-2s3-1 5 1zm68-1l1 1h1l2 1 2 2h1l1 1c2 1 3 3 2 3-1 1-2 0-2-1l-2-1-2-1-1-1-1-1-2-1c-2-1-2-2-1-3l1 1zm-94 0c2 1 1 5-1 5l-1 1-4 4-1 1-2 1-8 7c2 1 1 2-2 1h-1v1l1 1h-7 1l1-1 3-3a38 38 0 007-4l2-2 2-2c2 0 6-4 6-5l2-1v-2l1-1v-1h1zm71 1h1c2 0 3 1 3 2l2 1c1 0 2 1 0 1l-5-3-2-1c-1 0-2 0-1-1l2 1zm-133 2v2l-1-1 1-1zm113 2l2 1 3 1 1 1 2 1 2 1 1 1h5l-1 1-1 1h5v1l-1 1h1c2-1 3-1 3 1l1 1 1 1 2 1 1 1 2 1h2l1 1 1 1 2 1 2 1 1 1 2 1 1 1 1 1h2c1-1 1-1 2 1h1l2 1 1 1h2l1 1 1 1v1l-2 1h-7l-2 1-2 2-2 1-4 3-2 3-1 1v1l-5 3v2c2 1 2 2 1 3l-1 2v2 6l1 3v3l-1-1-2-2-5-4-1-1-4-3-1-1h-1l-3-3a23 23 0 00-5-3l-4-4-2-2-2-1-7-6-1-1h-1l-2-1-1-2 3 1 1 1h1l2 1 1 1 2 1 1 1 3 2 2 2 2 1 1 1 2 1 3 2 2 1 3 3 2 1 1 2 6 3-9-9-2-2h-1l-3-2-2-2-1-1-2-1h-1l-4-3-2-1-2-1-1-1-1-1-2-1h-1l-1-1-2-1-2-1-1-1-3-3a500 500 0 0027 13l-1-1h-1l-1-2-2-1h-1l-2-1-1-1-1-1-2-1-2-1-1-1-2-1-2-1h-1l-1-1-2-1-2-1-3-3 2-1 2 1 1 1 2 1 1 1h2l1 1 1 1 2 1h1l3 2h1l1 1 2 1 1 1 2 1 2 1 1 1 2 1h1l1 1 2 1 1 1 2 1 4 3 1 1h1l3 3c2 0 1 0 0-2l-4-3-1-1-1-1-2-1-2-1-1-1-1-1-2-1h-1l-2-1-2-1v-1l-3-1-1-1-1-1-2-1-1-1h-2l-1-2-2-1h-1l-3-2-3-2h-1l-2-1c-2-1-2-1-1-2s3-1 5 1l1 1 4 1a65 65 0 007 4l2 1 2 1 1 1 2 1 1 1 2 1 1 1 2 1h1l1 1 2 1 1 1h1l2 2 2 1h1l1 1 1 1 2 1h1l-1-1-1-1-1-1-2-2-3-1-2-1-1-1-2-1-2-1v-1l-2-1-1-1-2-1h-1l-2-2h-1l-1-1a43 43 0 01-7-4l-2-1-2-1h-1l-2-1c-2-1-3-2-2-3h3a62 62 0 007 4l2 1 2 1 2 1h1l2 2 2 1 2 1 3 1 1 1 1 1 2 1h1l2 1 1 1 2 1 1 1 2 1 1 1 2 2 2 1h2l-1-1-1-1-4-3-1-1-2-1-1-1-2-1-1-1-2-1-1-1h-2l-1-1-2-1-1-1-2-1-2-1-1-1-2-1-3-1a72 72 0 01-9-5l-2-1-5-2 2-1 2 1h2l3 2 2 1h2l1 1 2 1 2 1 3 1 1 1 1 1 3 1 2 1h1l1 1h1l1 1h1l2 1 2 1 1 1 1 1 2 1 2 1h1l2 1 2 1 1 1 1 1 2 1h1l-2-3-2-1-2-1-1-1-2-1-2-1h-1l-2-1-1-1-1-1-2-1-2-1-2-1-2-1-2-1h-1l-2-1-1-1-2-1-2-1-2-1a123 123 0 01-10-5l-1-1h2l3 1 2 1 2 1 2 1 3 1 2 1 2 1 2 1h1l2 1c2 2 4 1 3 0l-2-1-1-1-2-1h-2v-1l-2-1c-1 0-2-1 0-1 2-1 2-1 0-2l-4-3-1-1c-1 1-1 0-3-1h-2c-1-1-2-1-1-2h3zm36 0v1l2 1v1h-2l-1-1v-2h1zm63 1l1 1 2 3 3 2 1 3 2 1 1 1v2l1 1v2l-5-6-2-2-4-6-1-1-1-1c0-2 1-2 2 0zm-262-1v1h-3l3-1zm33 0l-2 2 1-2h1zm124 2l2 1h1l3 1 6 3v1h-4l-2-1-1-1-3-1-2-1-3-1c-2 0-2 0-1-1h4zm62 2l2 1v2l-1-1-2-1-1-1c0-2 1-1 2 0zm-218 1c2 2 2 3 0 2l-2 1h3c2-1 5 1 4 2s-7 0-8-1h-3l-4-1 1-1h2l2-1 1-1 3-1 1 1zm175-1v1c-1 0-2 0-1-1h1zm-46 0v1l1-1h-1zm84 2l2 1h1c0 2-2 2-3 1v-1l-3-1 2-2 1 2zm-6 0h-1v-1l1 1zm-224 0l4 3 2 1 2 1h6l1 1h2l2 1c1 0 1 1-1 1-3 1-3 2 1 2s4 1 3 2v5l-2 1c-3 2-2 3 1 2 2 0 2 1 1 1 0 2-5 2-7 1h-2c-2 0-4-2-2-2l2-1c2 0 1-1-3-1-3 0-4 0-1 1v1l-3-1-3-1-1-1c1-1-2-2-4-1-1 1-1 1-4-1l-1-3v-2c-1-2 1-7 4-9 1-2 1-2 3-1zm240 1l2 2 1 1 2 1 1 1h-2l-2-1-2-1-1-1-1-2h2zm-106 0l1 1-1-1zm23 1l2 1c3 2 4 3 1 4h-7v1l4 5h-2l-1 1c-2 1-6-1-5-3h4l-1-1-1-2-1-2-1-2h4c2 0 2 0 1-1-1-2 1-2 3-1zm-26 0h0zm148 0h-1l1-1v1zm-251 1v2c-2 0-3-1-2-2h2zm195 0v2l-2-2h2zm-33 0v1h1l-1-1zm-45 1c2 2 2 5-1 5l-1 1-5-3 3-1h1c0-2 1-2 3-2zm122 0l1 1h1a71 71 0 006 7l1 1 1 1 1 1a252 252 0 009 10l1 2h-2l-2-3-1-1-2-2-2-2-3-4a61 61 0 01-5-6l-2-1-3-4h1zm-16 1h-1 1zm-57 0c-1 1-1 1 1 1l1-1h-2zm26 1h-1l1-1v1zm-195 1l-2 1c-2 0-2-1 0-2l2 1zm215-1l1 1 1 1c2 0 2 2 0 2l-2-1-1-1-1-2h2zm-108 0c2 2 2 3 1 4l-2 2c-1 2-2 2-2 1v-2c1-1 1-1-1-1-3 0-4-2-1-2l1-1 4-1zm104 2l1 1 1 1 1 2v3h-2l-1-1-1-1-1-2v-1-2l-2-2 1 1 3 1zm-200-1l-1 1v-1h1zm-28 0l2 1c2 0 3 0 2-1h-4zm23 0l-1 3-1 1-3 4-1 1 1 1c1 1 0 2-1 2-2 1-2 0-1-2l1-2v-1c2-1 1-2 0-2-2-1-1-2 1-2l3-2c1-2 1-2 2-1zm12 0v1h-1l1-1zm100 0l1 1v-1h-1zm54 0c-1 1-1 1 1 1l1-1h-2zm27 0l2 2h1l1 1 2 1 5 4 1 1 2 2h-3l-1-1-1-1-3-2-2-2h-1l-1-1-2-1-1-1-1-1-1-1h3zm-182 1l-2 2v-2h2zm158 1l-2 1c-2 0 0 2 2 2l1 1 1 1 2 1h2l1 1 2 1 1 1 2 1 1 1 2 1 2 1h2v-2h-1c-2 1-3 0-1-1v-2l-1 1h-2v-1l1-1h-3l-2 1 1-2v-1l-2 1h-2l1-1v-1h-2-3l1-2c2 0 2 0 1-1l-2 1h-1c-2 0-2 0-1-1 1 0 2-1 1-2l-2 1zm-165 0l1 1v6c-1 4-5 4-5 1l2-2c2-1 3-3 1-5l1-1zm20 1c1 1 0 1-1 3s-2 2-3 1v-2c0-1 3-3 4-2zm85 2v3h-1-5c-2-1-1-3 2-2 1 0 2 0 1-1v-2c0-1 2 0 3 2zm95-2l1 2 1-2h-2zm-227 1h3s1 0 0 0h-3zm60 0c1 1 0 3-1 3-1-1-2 0-2 1h-2l-1-2v-1h3l3-1zm33 1v1h1c1 1 0 2-1 2h-1-1-2v-2l1-1 2-1 1 1zm23 0l1 1c2 0 3 2 1 3l-3-1-1-1-1-2h3zm21 0l3 3v1c1 1 2 2 1 3l-3 1-2-1c-2-1-2-2-1-2l1-1c3 2 2 0 0-2s-1-3 1-2zm-88 0l1 2 1 2h-1-1l-1-4h1zm49 1c1 0 0 0 0 0 0-1 0-1 0 0zm-63 0l1 2-1 5v1l-2 2c-2-1-2-2 0-3 2 0 2-1 0-4-1-1 1-4 2-3zm254 3a134 134 0 018 8v2a327 327 0 00-11-11v-2l3 3zm-290-2c-2 0-1 1 2 1l2-1h-4zm124 1l3 3c0 2 3 5 4 4l-1-2 1-1 2-1 1-1v2 3l1 2c2 1 1 2-3 2-3 0-4 0-4-2-1-1-2-2-3-1 0 1-5-2-5-4 0-1 1-1 2 1h3l-3-3v-2h2zm-36 0v2h-1l-2 1h-2l1-1 1-1 3-1zm-48 1v1h-2c0-1 1-2 2-1zm71 1c2 2 0 4-3 4-2 0-2-2 0-3l2-1c-1-2 0-2 1 0zm171-1h0zm-216 1v2l1-2h-1zm-78 1a77 77 0 0022 7h3l5-2 2-1c4 0 2 3-3 4l-3 1c-2 1-4 1-4-1h-2-2l-3 1-2 1-1 1-1 1h1c2-1 4-2 6-1h4l1 1 4 1c3-1 4 0 4 1l-1 1h-4l-8-1-2-1c-3 0-3 1 0 2 3 0 3 2 0 2l-3 1-2 1c-1 0-2 0 0 1h2l2-1 2-1h3l7-1c3 0 3 0 3 2l-1 1-1 2-5 1h-5c0-1 1-2 2-1h2l2-1c1 1 4 0 4-1l-4-1a190 190 0 01-4 0l-3 2h-1c-2 2-7 1-9 0l-3-1h-2l-3-2-2-3-1-1v-13l4-1zm85 1v1c-2 1-3 0-1-1h1zm44 0c2 2 2 7 0 7l-1-2v-3c-1-2-1-3 1-2zm-88 2c0 1 0 2-1 1v-3l1 2zm11-1c1 1 0 2-1 2v2l-1 2-1-2v-2l1-1c0-2 1-2 2-1zm4 1l-1 3-2-2c0-2 2-2 3-1zm15 0c1 1 2 4 0 3l-2-3h2zm12 0l-1 1v-1h1zm75 1l1 1 2 1a1349 1349 0 0151 38l3 2h3c2 1 2 3 1 3l-1 1h1l1 1 1 2c1 3-1 3-4 1l-2-2-3-3-2-3-2-2-1-1-2-2-1-1-3-1-2-2-1-1-2-1-1-1-2-1-2-2-4-3-2-1-3-2a170 170 0 00-30-20l3-2 3 1zm-92 0v2c-1 1-2 0-2-1l2-1zm60 1l1 2h-2c-2-2-2-3 1-2zm98 0h1-1zm-184 0l1 1v3l1 4v5l1 3c1 2 0 4-1 2h-2c-1 2-2 2-2 0l1-3 1-3c0-2-2-3-2 0-1 1-1 1-1-1l-1-2v-3h2c0 2 2 1 2-1 0-1-1-2-2-1l-2-2 2-2h2zm81 1v2l1 1v1h-1v1h1c1-1 1 1 1 2l-3-1-1-1-1-1-1-1c-2 0-2-3 1-3l2-1 1 1zm-32 0l2 2h2c1-2 3-3 5-2v5l-1 2-1 1-1 1-2 1v2l-1 2-1 1c0 1 1 1 2-1 2-1 2 1 1 3-2 2-4 1-4-1v-1c-2-2-1-7 2-7l1-1c-1-3-2-3-4-1l-2 1c-2 0-3 3-1 4v2c-1 3-4 2-6 0l-1-1-2-1c1-2-1-3-3-2a22 22 0 00-7 8l-1 2-1 1-1 2v2l-1 1v2l-1 1v1l-1 1-2 2-1 3-1 1h-1c-2 2-3 0-1-2l4-7 1-2v-1l2-4v-2l2-2 1-2 1-2 1-1 6-5 1-2h1l2-1c2-2 5-3 7-1h1l2-2h2zm-42 2l2 1c1 0 3 3 2 5s-3 1-3-2l-1-2c-2 0-3-1-2-3 0-1 1-1 2 1zm121 0l-1-1c-1 0-1 0 0 0l1 1zm-58 1h4v2c1 2 0 3-2 3h-1l-1-3v-1l-1-1v-1l1 1zm26 0l1 1 2 3c0 2-4 2-6 0s-1-3 1-2h1v-4l1 2zm-68-1l1 1 1 3c-1 1-3-1-3-3-1-1 0-1 1-1zm-34 1l-1 1v-1h1zm29-1c2 1 2 4 1 4s-3-2-3-4h2zm-5 1v4l1 3-1 1v-1-2c0-2-1-2-2-1v3c0 3-2 3-3-1v-1l-1-3c0-2 1-2 2 0h1c1-2 2-3 3-2zm95 1l1 1 1 1h4l1 1 2 1h1l2 2a54 54 0 006 4l4 2 1 1 2 1 1 1 4 3 1 1 3 2 1 1 2 1 2 1 1 1 2 2 2 1 4 3 1 1 2 1 1 1h1l1 2h-2a31 31 0 00-12 3h-1l-2 1-2 1-2 2-2 1v2l-2 4-1 2-2 4-2 5v1h1l2 1c2 1 2 2 2 4v5l1 2 2 1c1 2 0 3-2 3v-1l-2-1-4-5v-1l-1-1-2-3c-3-2-4-3-9-3h-5-5l-4 1h-2c-1 1-8 5-8 7l-1 1-1 2c-1 1-1 2-3 2s-3 4-1 6l1 4v4h-2l-2-1-1-6-1-2v-1l-1-3-2-3-7-7h-1a16 16 0 00-6-3l-5-1c-2 0-3 0-3-3v-2l-1 1c0 2-1 3-2 3l-2-1c0-1-1-1-1 1 0 1-3 2-6 1l-1 1-1 1-2 1-2 1-1 1v2l-4 4v1l-2 1-1 1-2 1h-3l-3 2-1 1-2 1h-2-1l-2-2 2-1h4l2-1c2-1 7-6 6-7l1-2v-3l1-2 2-10v-3l-1-7c-1-2 0-5 2-5v-2l1-2 1-1 1-2 1-1c0-3-2-3-2 0l-1 2-1 2v1l-1 1c-1 2-2 1-2-1h-2l-2 1-2 4-2-2v-2l-1-1-2-2h-5l-2 1-1 1-5 2-1 2-3 3c-3 2-4 1-4 0l2-4c0-1 3-4 5-4l3-3h1l1-1 2-1v-1-1l3-3 1-1v-2c-1 0-1-2 1-2l1-2c0-3 4-4 4-2l-1 2-2 1-1 1v2h1l1-1 1-1 1-2 3-3c2-2 3-2 3-1l-1 2-3 2a39 39 0 01-1 2 31 31 0 01-9 8v1c0 2 3 0 5-2 6-6 7-7 8-5h3l2-2v-1h1l-1 1v1l-1 2-1 2-1 2-1 1-1 2-1 2-1 1v2c1 1 5-4 5-6v-1l2-2 1-2v-1c1-3 2-3 2-1l1 1 1-2c-1-1-1-1 1-2l1-1 1-1 1 1v1c2 1 2 6 0 6v1l-1 2-1 2-1 3-1 2-1 1-1 3v1c-2 2-2 4 0 4l1-2 1-3v-2l2-2 2-5v-1l1-1a2491 2491 0 011-10c2-1 4 2 3 4l-1 2v2l-1 3v2l-1 2v2l-2 4-1 1v6l-1 2-1 2c-3 1-4 3-2 5 1 1 1 3-1 2l-2 5a343 343 0 010 5l2-2 1-1v-2l1-2v-1l1-1 1-2v-2l1-1v-2l1-3 1-2v-1l1-2v-1-2l1-2 1-4 1-4 1-2v-3l1-2v-6h1l3 1-1 7v2l-1 1v2l-1 1v2l-1 1-1 4v2l-1 2v1l-1 2v1l-1 3-1 3v1l-1 1v1l-1 2v2l-1 2c-2 2-2 3-1 3l2-2v-1l1-2 1-3 1-3 1-1v-2l1-4 2-3v-2l1-2 1-2v-2l1 1v3l1 2v-6l-1-3 1-2v-1l1 1 1 3v-8l1-2 2-3 1 1 1 1 1-2c-1-2-1-2 1-2l1 1v2l1 4v3l1 5v4l-1 5-1 2v6c1 1 2-1 2-3v-1l1-11 1-4v-2l-1-6v-6c-1-1-2-3-1-4l2 1h1c1 0 2 1 1 2l-1 3v3l1 2 1-2c-1-2 0-2 1-2l1 3v3l1 2 1 5 1 3 1 2 1 4c-1 1 0 4 1 6v4l1 3 1 7 1 3 1 3v4l1 2c0 1 0 2 1 1v-4l1-5v-1h1v5l1 4v-7-2-2l-1-5a51 51 0 00-2-11v-5l-1-4v-2l-1-2v-1l-1-3-1-3v-2l-1-1v-5-5l1-1v1h4l1 1v4l-1 2 1 1 1-2v-1c3 0 2-1 2 3h3l1 1a45 45 0 019 11l2 2 4 4 2 3 2 2a61 61 0 005 7l1 1a72 72 0 005 6l2 2c1 0 1-1-1-3l-2-3-2-2-1-2-2-3-2-3-2-3-2-2-2-3a58 58 0 01-6-8l-2-2-6-8-3-3-3-3c-3-3-4-5-3-6 2-1 4 0 6 3a68 68 0 006 7l1 2 3 3v1l1 1a94 94 0 018 12l4 4 2 3 1 2 1 2 1 1 1 1 1 2 2 3 2 3 1 1 1 2 1 1-1-3v-2l-1-1-1-2-1-1v-1l-2-2-1-2-1-2a129 129 0 00-13-19 67 67 0 01-5-6 181 181 0 01-7-10 17 17 0 016 5l4 5a79 79 0 006 7l2 1 1 1 1 1 1 2v1l1 1 1 1 1 1 1 2 1 1 1 2 1 1 1 1 1 2 1 1 1 1 1 2v-2l-1-2-1-2-1-1-3-4-1-2-1-1v-1l-3-3-1-2-2-2-3-3-3-4a287 287 0 00-13-13c-2-1-1-2 0-2l3 3 7 7a102 102 0 007 7l4 4 3 3 4 5 2 2 1 1 1 1v1l1 1 1 1 1 2 1 1 1 1 1 1v-1l-1-2-1-1-1-1-3-4-1-1-1-2-2-3-3-3a98 98 0 00-7-8l-3-3a176 176 0 01-11-11l-1-2-2-1-1-2c1-1 2 0 2 1l2 1 3 3a670 670 0 0030 31l1 2 1 1 2 2v-1l-1-2-1-2-1-1-1-1-1-1-1-1-1-2a124 124 0 01-8-8l-6-6a101 101 0 00-14-14v-2l1-1h3zm-26 0v1h1c2 1 2 2 1 2l-1 1 1 1c2 1 2 2 1 3-2 1-5 0-5-2l1-2v-2l-1-2h2zm110 0v1l1 2h1l1 1 1 2 2 3 2 3 1 1 2 5 2 4c2 1 1 3 0 3l-1-2-1-1-1-2-1-1-1-2-1-1-2-2-1-2-1-2-1-1c-2-1-2-2 0-3h1-1l-1-2-1-1h-1l-3-2c0 2-1 2-2 1l-1 1h-2c-1-1-1-1 1-2l1-1h7zm-206 0v2h-2l1-2h1zm51 1l-2 2-1 1v3l1-2 4-2 1-2h-3zm25 0c1 2-1 4-3 3v-1l1-1 2-1zm44 1l1 1 1 1 1 1 1 1h2l-1-1-1-1-1-1-1-1h-2zm-104 1v2c-1 2 1 4 2 2h3v3l1 1v2l-3-2-1-2 1 4c1 1 1 2-1 3l-2-4-1-1-1-3v-5h2zm72 0c1 1 0 2-1 3-1 0-2 0-1 1h1l2 1c1-1 2 2 1 3h-4l-1-2v-6h3zm38 1h1l1-1-2 1zm-55 1l-1 2v3l1-1c0-2 0-2 1-1l1 3-1 1-2 2c-2 0-3-1-2-2l-1-2c-3-2-3-2 0-4 2-2 3-2 4-1zm-39 0l1 3-3-2c0-2 1-2 2-1zm-29 1v1c-1 1-2 0-2-2l2 1zm126-1l1 2 1 1h1l1 1 1 1 1 1 1 1 4 3h2l-2-2-4-3-3-2-2-1v-1l-2-1zm-50 1c2 2 2 3-1 3-1 0-2 1 0 1s3 2 2 3l-4-2-1-1c-1-1-1-3 1-4h3zm125 1l1 1 1 1v3l-1-1-3-4h2zm-78 0l1 1h1c-1-1-1-2-2-1zm73 0l1 1 2 3a98 98 0 016 7l1 2-4-5-2-1-1-1-3-4-1-2h1zm-4 1l2 1v2a54 54 0 012 2l3 3 2 2 2 2 1 1c1 2 2 3 0 3l-2-1-1-2v-1h-1l-1-1c0-1 0-2-2-3l-2-2-4-4-1-1c0-2 1-2 2-1zm-219-1v1h1l-1-1zm54 2l1 3-1 1h-1l-1-2v-2h2zm-65 0l2 1 2 1-2 1c-3 1-2 1 2 1l3 2 6 2 3 1h2l-4-1-2-1-1-1-4-2h4l5 1c1-1 3 0 4 1h2l3 1c5 0 4 1-1 1l-3 1c-1 1 0 1 4 1l9 1c3 1 4 1 3 2h-4l-8-1c-1 1 1 2 3 1l4 2h2l2 1c0 2-4 2-5 1s-8-2-9-1l3 1c6 0 4 2-3 3h-4l3 1h2c1 1 0 1-2 1h-9c0-1 0-2 3-2h-3l-2 1-8 1c-3-2-5-6-5-7v-1-2l-1-3v-3l1-2 1-2v-2h2zm165 1l1 2 2 2a363 363 0 00-3-4zm62 0l1 1 1 1v2l-4-4h2zm-189 0l-1 1v-1h1zm24 2l1 2c1 1 2 4 0 4l-2-2-1-1c-1-3-1-5 1-5l1 2zm16-2l-1 2v1l-2 1c-1-1 0-2 1-2l2-1v-1zm147 3l1 1 3 3v2l-2-2-2-1v-1l-2-1v-2l2 1zm-4 1l1 1 1 1 1 1h-2l-2-1-1-2h2zm-184 0c1 1 1 1-1 2l-2 1h-3c-1-1-1-1 1-1l2-1 3-1zm89 0l2 7 1 2v3l1 2v1l1 2v4l1 2 1 3v3l1 6 2 7v7c-1 1-2-1-2-3l-1-3v-5l-2-5v-2a29 29 0 00-2-9l-1-5-1-2-1-3v-2l-2-5c-1-3 0-7 2-5zm9 2v2c1 1 1 0 1-1 0-2-1-2-1-1zm-76 0l-1 1c-1 0-2 0-1-1h2zm-14 0h4c1 2 1 4-1 4s-3 0-1 1v1l1 1 1 2 2 1-1-3v-2l1 1 1 1 1 1 1 2 1 2 1 2-1 1-2-2-2-1 1 2 1 1 1 2v2l-3-3-1-1-1-1-1-3-1-1-1-1-1-2v-1l-1-3v-3h1zm45 0s-1 0 0 0zm143 1l-1-1 1 1zm-194 1l-1 1c-1 1-2 0-2-1h3zm17 0v1l1 1 1 2 2 2c1 1 0 3-2 3l-3-4v-1l-1-1-1-1v-2h3zm179 1v1l-1-1h1zm-174 1l1 2h-2l-1-1c0-1 1-2 2-1zm-52 0l1 1c2 0 2-1 1-1h-2zm83 1c0 3 1 4 1 1v-2h-1v1zm40 0l1 2v-3l-1 1zm113 0l1 2c-1 0-2 0-2-2h1zm-230 0c-1 1 0 1 3 1s4 0 3-1h-6zm120 2v5l1-2-1-3zm113 1l1 2v2l-3-3c0-2 1-2 2-1zm-169 0c0 2-1 2-2 1h-1l-1 1-1 1-1 1-2 3 3-2 1-1 1-1h1v1l-2 5 2-2 1-2 1-2 1-1v-2h-1zm62 0l1 3 1-1c0-2-1-3-2-2zm-133 1v1c4 0 7 0 6-1h-6zm78 0c0 2 1 2 2 2l-1-3-1 1zm5 0l-1 3h1v-3zm47 0l1 3v-3h-1zm-28 1l-1 4-1 4v5a25 25 0 01-1 8l-1 4-1 4-1 4 2-3v-2l2-6 1-3v-4l1-4v-3l1-2v-3a61 61 0 010-3h-1zm4 3v0-1 1zm-29 0a99 99 0 000 2l1-2h-1zm59 0v3l1 1 1 3v-3l-1-3c0-2-1-2-1-1zm-98 1c0 1-1 2-3 1v-1h3zm90-1l1 2h1c0-2-1-3-2-2zm-99 2l-1 1-2 1h-3c-4 0-4-1 1-2l2-1c1-1 3 0 3 1zm28 0c-1 1-1 2 1 2l1-3-2 1zm75 0l1 1v-1h-1zm115 0l1 1v1l2 3c1 1 0 3-1 3h-1l-2-4v-3c-1-1 0-2 1-1zm-172 2c0 1 0 2 1 1v-2l-1 1zm31-1v1l-1 2v4l2-5-1-2zm-114 1c1 2 2 2 6 2l4 1h3l1 1h9l4-1h5l-1 1-1 1c-1 0-1 0 0 0 1 1 2 0 3-1l3-1h2l2-1 2-1 2-1v2l-2 1-6 3c-2 0-3 1-1 2h-2-1l-1-1h-4c-1-1-4-2-5-1s0 1 3 1h3l-1 3 1-1 4 1-2 1-1 1-3 1-2 1h2c3 0 3 1 4 2 0 1 0 2-1 1h-4l3 1c1 0 1 2-1 2l-2 1-2 1c-2-1-4 1-2 1l1 1h-4c-2-1-4 0-3 1s1 1-1 1l-3 1c-2 2-8 0-7-2l-1-2c-2-2-3-2-2-3 2-1 1-2 0-2l-1-3-1-6-1-2v-2c-1-4 0-8 2-5zm261 1l2 5c1 2 0 3-1 1l-2-1-1-2v-2c-1-2 0-2 2-1zm-123 1c0 4 1 5 1 2l-1-3-1-1 1 2zm-116-1h-1 1zm120 2v1l1-2c-1-1-1-1-1 1zm78 2h1-1zm-73 0v3c1 1 2 0 1-2l-1-1zm-79 1v2l-2-2h2zm76 1v3l1-2-1-1zm-4 0v5l1 5 1 3h1v-1l-1-7-1-2v-3h-1zm-97 1h-1l1-1v1zm-31 0v1l3-1h-3zm4 0l1 1 1-1h-2zm88 1l-1 1v3l-1 2-1 2v1l-1 1v2l-1 2-1 3-1 1c0 2 1 1 2 0l1-2 1-2 1-2 1-4v-1l1-2v-3l1-2h-1zm8 1l-1 6-1 3-1 4h1l1-1v-2l1-1v-10 1zm-71 0l-1 1-2 1-2 1h-1c-1 1-3 2-4 1v-1l3-1 2-1 2-1h3zm5 0l-3 2-3 2v-1l1-1 2-1 1-1h2zm-25 0v1l4-1h-4zm52 1c2 1 2 2 0 2l-1 1c-2 1-4 1-4-1l3-1v-1h2zm76 0v2c1 2 1 1 1-1l-1-1zm-135 0c-2 1 0 2 2 1h2c2 0 1-1 0-1h-3-1zm-12 1l2 2v-2h-2zm87 0v4l2-4h-2zm-12 1v1h-2v-1h2zm-30 1c1 0 0 0 0 0l-1 1-1 1-3 3-2 1-1 1 1 2h-2-2l-2 1-2 1h-1l-3 2-1 1-1 1-1 1c-1 0-3 1-2 2l3-1 2-1 1-1 2-1 3-1h1l2-1 2-1 2-1 1-1 1-1 2-1h3l-2 2-2 1a35 35 0 01-6 4l-2 1h-2l-2 2-2 1-4 2-1 2-1-1-4 1-3-1c-1-1 0-1 2-1s3-1 3-2c-1-1-5 0-6 1l-3 1h-3v1l1 1 3 2 5-1h6l2-1 5-3 2-1 2-1 3-1-1 2-2 1-2 1-2 1h-1l-1 1-2 2c-1 0-1 1 1 1l2-1 2-1h1l2-1 2-1 1-1 2-1 1-1 2-1 2-1h1l2-1v1l-2 1-2 1-1 1-2 1-1 1-2 1-2 1h-2l-1 1-2 1-1 1-4 1h-2l-4 2-4 1 2 1h8c2 2 6 1 7 0h2l2-1h3l-2 1-2 1c-3 1-3 2 0 2l2 1v-1l2-2 1-1 1-1h2l2-1a61 61 0 007-4l3-3h2l1-1 1-1 2-1 1-1 2-1h2l-1 1-2 1-3 2-2 2-4 2-1 1-1 1-2 1-1 1-2 1-5 3h-1l-2 1-2 1-2 1-3 1-3 1-3 1h-5l-3-2-6-6-1-2-2-2-4-5-4-4v-1c0-1 1-2 3-1l5 1 1-1 2-1h2l4-2h1l2-1 2-1 3-1 1-1 3-1 1-1h2l1-1 2-1 2-1 1-1 6-3zm-29 1l-2 2h2l3-1 2-1h-5zm40 0l-1 1v-1h1zm10 1l2 2 4 3c0 2-2 1-6-2l-2-2c-3-1-3-3-1-3l3 2zm13-1l1 1h-1l-1-1h1zm-30 0l-1 1-1 1-1 1c-2 0-1-2 1-3h2zm24 1l1 1 3 1c2 0 3 1 2 2l-5-1-1-1-1-1-1-1c-1-1-2-1 0-1l2 1zm75 2l1 3v-3c0-3-1-3-1 0zm-129 0l-1 1-2 1-1 1h3l2-1 2-1-1-1h-2zm40 0h-1c0 1 0 0 0 0h1zm-58 2l2 1 2 1v1h-1c-2 1-2 1 0 1h2l1-1v-2l-6-1zm40 0v1l-1-1h1zm8 4l-1 1-2 1h-1l3-3 2-1-1 2zm6-1l-2 3-2 1h-1c-1 0-1 0 0 0l1-1 1-1 1-2h2zm7 1l-5 5-1 1h-2l-1 1-1 1-1 1-2 1-1 1-4 3-2 1-5 2-2 1-2 1-3 1h-4l2-1 1-1 2-1 3-1 3-1 2-1 1-1 2-1 2-2h1v-1l2-1 2-1 2-1 2-1 1-1 2-1 2-2 2-1h2zm50 0v2l1-3-1 1zm-104 0l2 1 2-1h-4zm133 1l1 2v-3l-1 1zm-76 1a34 34 0 01-12 10l-2 1-1 1h-2l-1 1-1 1-3 1 1-2 1-1h1l2-1 2-1 2-2 2-2 1-1 2-1 2-1h1l3-3h2zm5 0l-1 1v-2l1 1zm81 0c-1 0-1 0 0 0 0-1 0-1 0 0zm-108 1l-1 2h-1l-3 1 1-1 2-1 2-1zm156 1l-1 1v-2l1 1zm-5 1v2l-3-2h3zm-121 0l-2 4a91 91 0 00-4 3h-1l-2 1-2 2-2 2h-1l-2 2-2 2-4 3a819 819 0 0017-8l-3 2-1 1-2 1-2 2-1 1-1 1-3 2a12 12 0 01-4 2l-1 1-2 1-2 1-2 1-2 1c-2 1-2 1-1 2l3-1h1l3-2h2l5-3h2l4-3v1l-2 2-1 1h-1l-1 1-1 1-1 1-2 1-2 1h-2l-1 1h-1l-1 1-1 1c-2 1-2 2-4 1l-3-1-1-1-8-4c-3-1-2-2 1-3h4l2-1h1l4-2 1-1h1a53 53 0 0010-7 38 38 0 005-3l10-8c4-3 5-4 6-3zm31 5v1c-1 1-2 0-2-1h2zm67 2l-1 2-2-2h3zm-57 1v1l-1-1h1zm49 0h-1 1zm-87 0v2l-1 1-1 1-1 2-1 1h-2v-2l1-1h1l2-1 1-1v-1c0-1 0-2 1-1zm124 1l1 1c-1 1-3 1-3-1h2zm-95 0l1 2 1 1 1 1 2 1 2 1 1 2v1l1-1 3-1v2 6l1 2v10l1 3v2l-1 4c1 5 0 5-1 5v-2a143 143 0 00-3-25c0-4-1-5-2-1 0 2-1 3-2 3v1h-3l1-2 1-1 1-3c2-1 1-3-1-3s-4-1-2-2l-1-1c-1 1-2 1-2-2-1-3 0-5 1-3zm4 0l-1 1 1-1zm52 1h-1c-2 1-2 0-1-1l2 1zm-148 0a667 667 0 014 0h-4zm212 0c1 1 1 2-1 2l-2-1 3-1zm-67 0c1 1 0 2-2 2l-1-1c0-1 2-2 3-1zm18 1l1 1 1 1v1c0 2-2 2-3 1l-1-1c0 1-3 2-4 1s0-2 2-2v-1c-1-2 2-2 4-1zm-55 0l2 1v3c0 2-1 3-1 1l-1-1v-4zm-21 1l-1 1v-1h1zm117 1l-3 2v-3l3 1zm-122 0l-1 1-1-2 2 1zm23-1l-1 2-1-2h2zm36 0l-1 1-2-1h3zm68 2l1 1-3 1 1-3c1-1 1-1 1 1zm-32 0c2 0 2 1 1 1l-2-1h1zm-28 1h2l4 1c3 2 4 4 2 4l-3 1-3 1c-3 0-3 2 1 3l3 2 1 1 2 1v9l1-1v1l-1 1-1 1v1l-1-1-1 2h1c1-1 2 0 2 2 0 1-2 2-3 0-1-1-3-1-5 1-1 2-3 1-3-1v-1l-1 2-2 2c-1 0-2 0-2-2v-1l-2 2c0 1-1 2-2 1v-2l1-1 1-2v-2c-1-1-2 1-3 3 0 2-2 2-2 0l1-1v-2h-1c-2 1-3 1-3-2 0-1-2-1-2 1l-1 2-1-3 1-3v-2l1-4c-2 0-3-3-2-4s2 0 2 2c1 2 1 2 3 2s3 1 2 2l1 3 2-4-1-3 2 1h1v-4l1-1v-1l1 1v5l1 1v1l1-2c0-2 2-3 3-1v-1-3c-1 2-2 2-3 1h-1l1-1 2-1h2l1-1 3-2c1-1 1-1-1-1-3 1-8 1-5-1l1-1c-1-1-3 0-4 1-2 1-4 1-3-1 2-2 7-3 9-1zm37-1c1 1 0 4-1 5v2l3 2-2 2-8-2-1-1 1-1 3-1 2-1 1-1v-3l-1-1h3zm7 1h1c2 0 2 3-1 3h-2l-1-2c-2-2 0-3 3-1zm-104 1l-1 1-1 1-3 3-1 1-1 1-2 1h-1l-1 1-2 1-1 1-1 1-1 2 1 1 1 1 3 3v3h-6c-2 0-2 0-1-1v-2l-1-1-1-1-1-1c-1-1-2 0-2 1l3 2 1 1-2 1-2 1-1 2h-5a200 200 0 00-1-4l-1-2v-2l-1-2v-2l1-1-1-1 1-4c1-1 5 0 5 2l1 1h2c1 1-2 2-4 2s-3 1-3 2c0 2 5 2 7 0l2-1 4-2 2-1a43 43 0 005-3 62 62 0 008-7l1-1 1 1v1zm-11-1h-1l1-1v1zm227 1c1 1-2 3-3 4l-4 2-1 1c-4-1-4 0-4 2 0 1 0 2 3 0l3-1h2l-2 2-1 2c0 1-1 2-2 1s-5 2-7 7v4c2 1-1 8-3 8l-2 2-1 1h-5l-2-1v-2l1 1c2 1 4 0 6-2 4-5 5-6 4-7l-2 1-4 3c-2 0-3-2-2-3l5-2h1l2-2v-4l-1-1-1-1v-3l1 1h1l3-2 1-1v-2l4-3 1-1 4-2 4-2h1zm-136 0c1 0 2 1 1 2l3 1 2 1h-5l-2-1c-2 0-3-3-1-3h2zm-55 0v7l-1 4v6l1-3 1-2v6l-1 2-1 2c1 1 0 2-1 2v-2c1-2 0-4-1-4l-1 2c0 2 0 3-1 2v-4l1-3 1-6c1-1 2-4 1-5v-4h2zm24 0v1l-1 1-2 1c0-2 2-4 3-3zm43 0c1 1 1 1-1 1-1 0-2 0-1-1h2zm-176 2l3 2c1 1 3 0 3-2h-6zm159 1l2 1 1 2 4 2 2 1c1-1 1-1 4 1h2l5 2h1l1 1 1 1 2 1 5 3 2 1h1l1 1 2 1 8 7 1 2 1 1 2 2 2 2v1l1 1 1 1 1 1 1 2v1l1 2 1 1a57 57 0 003 5l1 1 1 1 1 2v2l1 1 1 3 1 1v1l1 1 1 2-2 3-2-2-1-2-1-2v-2l-1-2c1-1 0-2-2-2v-2l-1-2-1-1-2-4v-1l-3-4-1-1-5-5-1-2-2-2-4-4-2-2-2-2-1-2-5-2-1-1-2-1-1-1-2-1-1-1-4-1h-2l-1-1-2-1-4-2h-1l-2-1c-2-1-5-1-5 1l2 1 2 1 3 2 3 1 2 1c2 0 4 2 4 3l-1 1h2c1-2 4-3 5-2l2 1 1 1 1 1 2 1 2 1 1 1 1 1 3 2 1 1v1l1 2c1 2 1 3-1 2 0-1 0-1 0 0-1 1-1 1 1 2l1 1 1 3 1 3v1c1 1-1 3-3 4l-1 1h-2c-2 0-3 0-2 1s0 2-1 2l-1-1-1-1v-1l-1-1-2-1 2-1v-1l5-5-3 2-2 1v1l-6 3-1-1 1-1 1-1 1-1 4-3 1-1v-1l-3 2-1 1-1 1-1 1-2 1h-1c-3-1-2-3 1-3l5-4-1-1c-2 0-3-2-2-3l1-5 1-2-2-4-2-1-2-1 1 2 1 1c-1 1 0 3 1 4v2l-1-1-2-1 1 3v7l-2-1c0-2-2-3-2-1-1 2-1 2-2 1-1-2-2-2-2 0l1 1v2l-1-1v-1c-1 0-2 1-1 3v1l-1-1-1 1h-4a212 212 0 00-10-1l-4-1 1-1 4-2 1-2 1-2v-1h0-2v-3l1-2v-1l1-6c0-4 0-5-2-6l-4-3-2-1c-1-1 0-2 2-2s5-1 5-3h3zm-19 0l-2 2v-2h2zm51 0l1 1 2 3-2 1h-1l-1 1-2-1-3-1-1-2v-2l1 1h3c1-1 2-2 3-1zm8 0c2 2 2 5 1 5h-2l-1-1v-4h2zm-189 1h4c1 0 1 0 0 0a110 110 0 01-4 0zm75 1v2c-2 2-2 2-3 1 0-2-1-2-1 0l-2 1v2l1 1h1v2l-1-1-1-1-1-1h-2l-2 1c-1 0-2 1-1 2s1 2-1 0l-1-1h-1l1-1 2-1 1-1 1-1 1-1 2-1h1l2-1h3l-1-1v-1l2 1zm17-1v1l-1 1-1-1 1-1h1zm3 0v3c-1 1-2 1-2-1v-1-1h2zm7 0v4l-1-2v-2h1zm216 1v2l-3 4-1 1-1 2-1 1-1 2v2l-1 1v2 4l-1 3-1-1-1-1v-5l1-2 1-1 1-1h-2-1l-2 1h-4l1-2 5-2 1-1 4-4v-1l1-1 5-3zm-139 0v1h1l-1-1zm-123 1v1l-1-1 1-1v1zm91 0c-4 1-4 2 1 3l1-1v-1-2l-2 1zm-24 1v1l-1-1h1zm-86 0l-1 2-4 3-3 3-2 1c-2 0-3 2-1 2l4-2 1-1c2 0 2-1 5-3 2-3 4-3 3-1l-2 3-3 2-2 1-1 1h2l2-1c2 0 3-1 3-2 1-2 3-2 3 0-1 1-6 6-9 6-1 0-1 2 1 2l2-1 2-1h2v4h1c2-1 3 0 2 1l-4 1h-1l-3-1h-2l-1-1h-2l-3-3-5-2c-2 0-3-1-3-2l3-1 3-2 1-1 1-1 3-1 2-1 2-1 1-1c1-2 2-2 3-2zm-25 2c-1 1 0 1 1 1l1-1h-2zm181 1l1 1 1 2v3l-4-1-1 1-3-3-2-2c0-2 3-2 4-1l2-1 2 1zm-17 0h3c3 0 7 3 7 5h-6-1l-1-1h-2l-4-3c0-1 2-2 4-1zm24 0v3c-3 0-4-1-4-2s2-2 4-1zm-96 1v7c-1 1-2 0-2-4l1-4 1 1zm112 0l-2 2-2-1c-1-1 3-3 4-1zm-142 0h-1 1zm214 0l1 2 1 2v6l-1 1-1 3v1l-1 1h-2l-1-1v1l-2 1h-3l-1 1-1-1-1-2v-3c0-2 1-5 5-7h3c1 0 2 4 1 5v4c1 1 2 0 2-2v-3c1-1 0-4-1-4v-2-3l-1-1 1 1h2zm-81 1l-1-1 1 1zm-121 1v1h-1v-1h1zm49 1h0zm-58 0l-2 3v-3h2zm4 0h-1c0 1 0 0 0 0h1zm27 2c0 2-2 3-2 0l1-2h1v2zm94 0l-1 2v1l-1 1h-1l-3-2c-1-1 1-2 3-2h3zm4 1l1 1 3 4h-3l-1-1h-1l-1-2v-3l2 1zm63 0c1 1 0 2-1 2l-1-2c0-2 2-2 2 0zm-157 0l-1 2-2-1c0-2 2-3 3-1zm5 0v1l1-1-1-1v1zm-51-1v1l-1-1h1zm89 1v2l1-1c0-2-1-2-1-1zm37 0l2 1c1 1 1 4-1 5-1 1-5-1-6-3l-2-1c-2-1-1-2 1-2l2-1 4 1zm-42 0l1 1v-1h-1zm-72 1l-1 1-1 1-1 1-1 1-1 1h-1l-1 2h-1l-2 1-1 1-1 1-1 1h5l1 1 1-1 1-1 2-1c1-2 3-2 3 0l-4 3-1 1-1 1h-1l-2 1-1 1-1 1c-2 0-2 2 0 2l1-1 1-1 2-1 1-1 1-1 2-1h1l1-1c1 1 0 2-1 2l-1 2h-1l-1 1-2 1-2 1v2l2-1 2-1v1s-2 1-1 2h1l1-1 1-1 1-1h1v1l-1 2h-1v2l1-1 1-1 1-1h1v-1c1-1 2 0 2 1a25 25 0 01-6 5 91 91 0 01-2 3h-3c0-2-1-2-1 0l-2 1h-5l-3-1-1-2-2-1c-3-3-2-4 1-4l6-1h2l-1 1-1 1h3c2-2 2-2 0-2l-1-1c0-2-1-2-3 0l-1 1v-2l1-1 1-1c2-1 2-2 0-2l-1-1-3-1c-1 1 0 2 1 2 3 0 0 4-3 4l-2 1-3-1-2-3-1-2-3-4v-2l2 1 5 1h5v1c0 1 1 2 2 0l-1-1-1-1-2-1h-2c-1-1 0-2 2-2l1-1h4l1 1 2-1h1l1-1 1-2h1l1-1h1l2-1-4 5h-1l-2 2-1 1 1 1 1-1 1-1 1-1 1-1 1-1 5-4h3zm7 1l1 1c1 0 1 0 0 0-1 2-4 0-3-2l2 1zm-57 0l1 1h1l-2-1zm92 2l1 1v-1-1l-1 1zm82 2l1 1c1 2 0 3-2 3h-3l2 1h1l2 1c2 1 2 1 2 3 0 3-5 3-5-1l-2-1-2-2-2-1v-3c1 1 2 0 3-1 1-2 2-3 4-1l1 1zm103-2c1 1-2 5-6 7a201 201 0 00-4 2l-3 1v-1l2-1 2-1 1-1 1-1 2-2a13 13 0 013-3h2zm-227 1l-2 2-1 1-1 1-2 1-2 1 1-2 1-1 1-1 3-2h2zm60 0h0zm-36 1c1 1 1 2-1 2 0 1 0 1 0 0 0-3 1-3 1-2zm105 0l1 2c2 0 3 1 3 2 1 1 1 0 1-1v-2l2 2 1 1 1 2h-2l-1-1-1 1c0 1-2 2-4 1s-3-2-2-4l1-1-1-1v-1h1zm-189 0l2 1 3 1c1 1-1 2-3 1h-2l1 2 1 1 1 2 2-1h6c1 1 1 1-1 1a68 68 0 00-5 1h-1l-1 1c-1 0-2 1-1 2l5-1h4l-1 1-2 1-3 1c-1 0-2 0-1 1l3 1 1-1 2-1 3-1c1 1 0 3-1 3h-2l-1 1c-2 0-2 2-1 2l2-1 5-1c1 1-1 2-2 2l-1 1c2 1 2 3-1 3v3h-6c0 1 0 2 2 1l2 1h2c2 0 2 1 0 1l-2 1h-4c-2 0-3-3-2-4l1-2c0-1 3-2 5-1 1 0 2 0 1-1l-2-1h-2-1l-1-1a44 44 0 01-4-7l-1-2v-2l-1-2v-2-2-2l-1-1h3zm145 2l1 1v-1-1l-1 1zm-36 0l1 2 1-2h-2zm29 0h1l-1-1v1zm-98 0l1 1 1-1h-1-1zm52 0c1 2-2 4-2 2-1-1 0-3 1-2h1zm8 2l-1 1c-2 2-2 1-1-1 1-1 2-2 2 0zm104 0l3 1c2 0 2 0 2 2-1 3-1 3-3 1l-1-1c-3 1-3 0-3-1l1-3 1 1zm-136 2v6c-1 1-1 0-1-1-1-2-1-2-2-1h-2l1-2 1-1 1-1v-1l1-1 1 2zm11-2l-1 3c-1 0-2-1-1-3h2zm64 0l1 3v-3h-1zm-3 1v2l1-1c0-2-1-2-1-1zm-57 0v1c-1 1-2 1-2-1h2zm64 0v1h1l-1-1zm97 1h1c1 0 2 1 1 2l-2-1-1-1h1zm-142 1l-1 1v-1h1zm-51 0v0zm108 0v2l-1 1-1 1h2l1-2 1-1-2-1zm-132 1h-1 1zm118-1l1 2v-1l-1-1zm4 1v-1 1zm-8 0l1 1v-2l-1 1zm-51 1l-1 1v-2l1 1zm8 0h1l1 1h2l3 1h6l3-1c2 1 2 1 1 3l-1 1h-6a66 66 0 01-8-1l-6-3 1-1 2-1 1 1zm20 0l-1 1-1-1h2zm20-1v2l1 1c1 2 2 2 2 0l-1-1-1-1-1-1zm128 1c3 3 4 8 3 10l-1 1-2 3-2 3-2 2c-2 1 0 2 2 1l2 1-2 1-2 1h-6c-3 0-4-1-2-2l3-1c3 1 3 0 3-1l1-2 1-2 1-1 2-4c1-2 1-7-1-9-1 0-1-2 1-2l1 1zm6 0l-1 1-2-1h3zm-186 0l-1 1-1-1h2zm116 1c2 1 2 3 0 3h-2l-4-2 2-2h2l2 1zm-11 0l2 1 2 4c-1 2-6 0-6-3 0-2 1-4 2-2zm-57 0l1 2 1 1c0 2 2 3 3 2l-1-3-2-1c0-2-1-2-2-1zm-56 0v2c-1 1-3-1-3-2h3zm43 1l-3 3c-1 0-1-1 1-3s3-2 2 0zm10 0l-1 1v2l1-1h1l2 1-1-2-1-1h-1zm-113 1l-1 2v1h3v5h-1l-2-2-1-1v-1-2l-1-2h3zm206 0v2h-1l-3-1c0-1 3-2 4-1zm5 0l1 1c1 2 6 3 7 2 2-2 4-3 5-2l1 1 1 2c1 2 2 2 4 0l2-2 1-1 1-1v2l-1 1v6c0 2 0 3 3 5v1l-3-2-1-1-1-3v-2l-1 1c0 2-2 2-2 1-1-2-2-2-2 0l-1 2-1 1c0 2-4 4-5 3l-1-1-1-1v-2l1-2 1-1 1-1c1 0 4-2 3-3s-3 0-4 1l-1 2-6-2-2-1-2-2 3-2zm-168 1h-1v-1l1 1zm158 1c0 1-1 2-2 1h-1l-2-1 2-1h1c1-1 2-1 2 1zm-70-1v2l-1-1c-1-1 0-2 1-1zm24 1l-1 1h-1c1-2 1-2 2-1zm14 0c2 0 4 3 4 6s-1 3-2 2l-1-2-1-1v-1l-1-1-1-1c-2-2-1-3 2-2zm-115 0c1 1 0 2-1 2l-1 3v5c-2 0-3-1-3-2l-1-1-1-2 1-2-1-1h2c0 2 2 1 3-1l2-1zm191 1c2 1-2 7-5 7h-5c-3-1 7-9 10-7zm-56 2l1 2v3 1h-3l-1-1v-3-3c1-1 2 0 3 1zm19-2l2 2 1 1-3 1h-1l-2-3 3-1zm-25 1v3l-1 1c-2 0-3-2-3-4h4zm-54 0v1l-1 1v-1l1-1zm30 1l1 2v1l1 1 2 1 1 2v1l1 1 1 1 1 2v6 3l-1 1c-2 2-5 4-6 3h-1c-1 2 2 4 4 4l1-1 1-1h1c2-1 3-3 2-3v-3l1-1c1-2 3-1 3 0v3l1 2v2c1 1 2 2 0 3a235 235 0 000 2c2 0 2 1 0 2-2 0-2 2 0 2 1 0 2 1 1 2l-3-1c0-1-2-2-3-1l1 2h2l1 1s2 1 1 2l-3-1c-1-1-4-1-3 1h2v1c-3 1-7-1-7-4l-1-1v-2l-1-2-1-1-2-3v-2l-1-3-1-1-1-1-1-2-1-2-1-1-1-2c-2 0-1-1 1-3l1-1 1-1 1-1 2-5v-1c0-3 2-4 3-3zm39 2l-1 2c-1 1-1 0-1-1s1-2 2-1zm-149 0c-1 1 0 2 1 2v-2h-1zm98 0l-1 1-1 1-1 1 4-3h-1zm55 1c0 1 0 2 0 0h3c0 2 1 2 2 1s1 0 1 1l2-1c1-1 2 0 2 2h1l1-1c3 0 3 3 0 4l-1 1-1-1c1-2 0-2-2 0l-3 2v-2c1 0 2-1 1-2h-1l-1 2-2 1h-1l1-1v-4l-1 2c-1 1-2 1-2-1l-1-2v-2l2 1zm-194 0l-1 2-1-3 2 1zm23 0l1 2v-1-2l-1 1zm148 0c2 2 2 6 0 7h-1l-1-1v2l3 1 3 3c1 2 1 3-2 3l-1 1 4 1 3 4c1 1 0 3-1 3l-2-1-1-1-1-2-1-1-1-1-1-1v-2l-1-2-1-2-1-1c-1-1-2-3-1-4v-1-5h4zm79 1l1 1v2l1 2 1 1c2 0 2 2 1 3-2 1-3 0-3-2 1-2 0-2-3-1h-4c-2 2-5 2-5 0l6-3 3-1v-1l1-2 1 1zm-214 0l-1 2-2 1v2l3-3 2-1v2 2h1l-1 2-1 1-1 2a30 30 0 00-4 3h-1l-1 1-2 1h-3-1l-2-1-2-3v-2c-1-1-1-2 1-2h2a444 444 0 018-4l1-1h1l1-1c0-2 2-2 2-1zm113 0l1 2 1-1-2-1zm64 1l-1 2v1l2-1v-2h-1zm-71 0h0zm-146 1v2h-2c0-2 0-2-1-1v8l-1 2-1 1v-4l-1-2c-1-2-1-3 1-3v-1l1-1 1-1h3zm181 0l1 2 1 1 2 1h1c1-2 2-2 2 0l1 2 1 2v2l1 1v1h-3l-1-2-1-2c0-2-1-3-2-1s-3 1-5-3l-1-2c-2-1 2-4 3-2zm43 1l-1 1-1 1-1 1v-2l1-1c0-2 2-2 2 0zm14 1v1l-2-1h2zm-79 0v1h1l-1-1zm68 0l-1 1 1 2c2 0 2 0 1 1h-4l-1 1-1 1h2c1-1 1 0 1 1v1h-1l-2-1-1-1c-2 0 0-3 2-3l1-1v-2h3zm-188 2l2 1c1-1 0-2-1-2l-1 1zm118 0v1l1-1h-1zm-124 1l-1 1h3l-2-1zm17 0l-2 4c-1 0-2-1-1-2l1-2h2zm94 1l-1 1-1-2 2 1zm71 1h3c0 2-3 3-4 2-2-2-1-4 1-2zm-171 0v1l-1 1-1 1-1 1v1h-2l-1 2v1h1l1-1 1-1 1-1 1-1h2l-3 4c-2 1-2 2-1 2l4-4 1 1c1 0 0 3-2 3l-1 1-1 1-3 2c0 2 1 2 2 1l1-1 1-1h1v1l-1 1-1 1-3 3h4l1-2v-1l1-1c0-1 1-2 1 0v1l-1 1h2l2-2c2-2 3-2 3 1l1 2h-5v1c-2 0-2 1-1 3h-2l-2-1h-4c-2 1-8-4-8-7v-2c-1-2-1-3 2-4l8-6c0-2 3-3 3-2zm114 0l-2 1-1 1c0 2 1 1 3 0l1-1v-1h-1zm-170 2h1l-1 1h-3l-1 1 1 1-1 1-3-2 1-3 6 1zm241 0l-1 1-1-1h2zm-68 0v1l1-1h-1zm-170 2c1 1-2 3-4 3-2-1-1-2 1-2l2-1h1zm38 0v1c1 1 2-1 1-2l-1 1zm19 0v1l-2-1h2zm136 0l1 1v1c0 2-1 3-2 2l-1-1c-1-1-2-3-1-4l3 1zm-34 0v1l1-1h-1zm9 0v1l1-1h-1zm-157 2l-1 1v2l-4 3 1-2v-1l1-2 2-2v-1l1 2zm154-1v2l2-1-2-1zm32 1l1 2a1266 1266 0 003 5h-2l-2-2s-2-4-1-5h1zm-193 2l1 2-1 1v1l-1 1-1 2-1 2-1 1-2 2c0 1-2 1-2-1l1-2h1l1-2 1-2 1-2 1-2c1-3 1-3 2-1zm164-1v1l2-1h-2zm-176 1l4 1h2c1 0 1 1-1 1l-1 1-3 1c-2 0-3 1 0 2 2 1 2 2-1 2-2 0-3 0-2 1l2 1 1 1h-4l-1-1v-3l1-1v-2l1-1 1-3h1zm163 1l1 1 2 2-1 1h-1v1l1 1v1c1 0 2 1 1 2l-1-1-1-1-1-1h-3-3c0-1 0-2 2-2h0c-2 0-2 0-2-2h-1l-2 2h-1l-1 1-3 2c-1 1 1 2 1 1l2-1 1-2h2l1-1h1v1l-1 1-1 1-2 1c-2 2-3 3-4 2l-4-2-2-2h-2l-3 1c-3 0-1 2 3 2h2l1 1 1 1 2 1 2 2 1-1 1-1 1-1 1-1h4c2 1 3 2 2 3h-1c-2-1-3-2-4-1h-1l-1 1-1 2-1 1h-3c0 2-1 2-2 1h-2-3l-2-1-1-1h-1v1l1 1h-4c-2-1-2-1 0-2l1-1c-1-1-2 0-3 1h-3l-6 2h-2l1-1 1-1 3-2a92 92 0 0010-7l3-1 2-1c4-2 7-3 10-2h2l2-1h6v-2h1l2 1zm10 0l1 1v-1h-1zm-103 1h-1 1zm-6 1h-1v-1l1 1zm97-1v2l1-1-1-1zm-89 2v2h-2c-1-2 0-3 2-2zm133 1l1 1 2 4v1l-2 1-2-1-2-2v-2c0-2 1-3 3-2zm-8 2l1 1h1l1 1 2 2 1 1c0 2 0 4-2 4l-4-5-1-2c-2-1-2-2-1-3l2 1zm-15 0l-1 1-2 1c1 1 5-1 5-3l-2 1zm11 2l2 2v2l2 5v2l1-2c-1-1 1-2 2 0l2 1h1l1 2c1 2-1 5-2 3l-2-2c-1-2-2-1-2 2v3h-3v-5-2l-2-3v-1l-2-6c0-2 1-2 2-1zm-96 2l-3 5c-2 2-2 2-1 3v2l-1 1-1 1-2 3a37 37 0 01-10 8h-2l-1 1c-2 2-5 2-3 0l1-1 2-1 1-1 2-1 2-2 1-1h-2l-1 1-1 1-4 2-2 1h-3l2-2 1-1 2-1 3-1 3-2 2-2 1-1a34 34 0 007-6l2-2 2-3c2-3 3-3 3-1zm64-1v1l3 2c1 1 1 2-1 2-1 0-2-1-2-3h-1v-2h1zm50 2l-1 4v2l-1 3c-1 1-4 0-4-1v-1l-1-2v-2l1 1h2l2-1v-1c0-3 1-4 2-2zm-214 0l-2 2 2 1c2-1 2 0 0 1l-2 1h-2l1 1c1 1 0 2-2 2s-1 2 1 2 2 0 1 1l-4 1h-1c-3 1-2-5 2-7l3-4 1-2h2v1zm71 0h-3l2-1 1 1zm113 0v1l3-1h-3zm-43 1l1 1c1 0 2-1 0-1h-1zm51 1h-1v-1l1 1zm-45 0c-1 0-1 0 0 0s1 0 0 0c0-1 0-1 0 0zm24 0h-1 1zm51 0h-1v-1l1 1zm-158 2c3 1 3 2 1 3-2 0-2 1 0 1 1 0 2 0 1-1h2v1l-2 1-2 1c-2 0-3 1-1 1l2 2h-8l-1-1v-4c0-4 0-5 3-5h3l2 1zm5-1v1c-1 1-1-1-1-1h1zm75 0l1 1c1 1 1-1 1-1h-2zm80 0l-1 1c-1 1-1 2 1 3v3h-1c-1-2-1-2-3 0l-2 2-1-1-1-1 1-1 2-1h2v-3l1-2h2zm-76 0l1 1-1-1zm81 1l-1 1-1 1v-2h2zm-10 1l-1 1c-1 1-3 0-2-1h3zm-177 0c0 2-5 5-8 5l-2 1h-2l-3 1H87v1c-1 1-3 1-5-1-1-2-1-2 2-2l1-1h20l4-1 7-3h2zm127 1l-2 2h-1v-1l2-2 1 1zm5 0l-1 1-1-1h2zm-168 1l-2 2-3 5v1l-1 1-1-1v-4l2-1 4-4 1 1zm188 0c1 1 0 4-2 4l-1 2 3-1c1-1 3 0 1 2v1c1 1 2 1 0 2l-1-1-1-1c-2 1-2 2 0 2l3 2c1 1 0 1-1 2s-2 1-1 2c2 0 0 2-2 3h-9-1v-3l-1-4v-3l-1-2c-1-2 1-3 2-2h2l7-5 2-1 1 1zm-100 0l-2 1-1 1-1 2a51 51 0 00-4 3v1l2-2 3-2 2-2 1-1v-1c0-1 0 0 0 0zm37 0l1 1c1-1 6 1 7 3l2 2v2h-2l-3-4h-1-2l2 2 1 1 2 2-4-2h-2l1 1v2l-1 1h-3c-3-1-7-1-10 1h-1l-1 1-3 1v-2l1-2v-2l1-1c0-1 7-7 8-6l3-1h4zm33 1c1 1 0 2-3 2l-4 1-5 2-2 1h-2c-1-2 1-3 2-2l3-2h3l2-1 2-1h4zm66 0c2 0 2 1 0 2-1 1-2 2-3 1v-2l1-1h2zm-53 4l1 3v3l1 3v2c1 2-1 4-2 4a17 17 0 01-3-6l-1-3-1-3c-2-3-1-5 2-5h2l1 2zm47-1v3h-3v-1l1-1 2-1zm-94 1l1 1 1-1h-2zm80 0l2 1h2c1 1-1 4-2 3h-1l1 1c1-1 2 0 2 1 1 3-1 3-3 1l-2-2h-1l-1 1c0 2-1 2-2 0-2-1-1-3 2-2l1-3 1-1h1zm24 0v1l-1 2c1 2 1 2-1 2l-3-1-1-1-2 1c0 2-1 3-2 1-1-1 0-2 1-2l1-1h2l2-1h2l1-1h1zm-243 1h1c1 0 1 2-1 2-2 1-2 2 0 2l1 1h-3l-1-1v4l-3 1c-2 0-3 3 0 4l-1 3-1 2c3 2 2 3-1 1l-2-1c-1 0-1-1 1-2l1-2 1-1-1-1h-3l-2 1c-2 0-2 1 0 2v1c-2 1-3 1-4-1-1-1-1-3 1-3l5-3 2-2 3-3c0-2 6-6 7-4zm16 1h-3l2-1 1 1zm230 0v5c1 3 0 4-2 2h-1c-1 2-1 2-3 1-1 0-1-2 1-2l2-1 1-2v-2c0-2 1-2 2-1zm-175 1l3 1c0 1-2 2-3 1-1 0-3 0-3 2 0 1 1 2 2 1l5 2 1 2 1 1h3l-1 1-1 1-1-1c-1-1-2 2-1 3 1 2 1 2-1 1l-2-4 1-3c-1-1-2 1-2 2h-2l-2-1-1-1-1-1c-2 0-2-1-2-2l1-2 1-3h5zm99 1l-1 1-2 1h-3l1-1 2-1h3zm-31-1v2l2-1-2-1zm71 2v2c-2 1-3-1-2-2h2zm-50 1v2l-1 1 1 2v2l2 7v1l1 2 1 2a33 33 0 004 9v1c2 1 1 2-1 3a19 19 0 01-14-2 16 16 0 01-6-8l-1-2v-1-3-4c3-6 4-7 8-11 3-3 4-3 6-1zm89-1l1 2-3-1c0-1 1-2 2-1zm-52 0c-1 1 0 2 1 2h1l3 1-1-1-2-2h-2zm34 0v2l-1 1h-2l-1-1 1-1 1-1h2zm-87 1v1-2 1zm29 0c1 1 0 2-1 2l-2 2h-1l-1 1-1 1-2 2c1 1 2 1 3-1l1-1 1-1c2-1 4-1 7 2h2l1 1h2l3 2c3 3 1 5-2 1h-1l-1-2h-1l-1 1-2 1-3 2c-1 1 0 3 1 3l3-2h2l2 1 4 1c1 1 0 1-2 1-3 0-4 0-2 1h6l3 2 2 1-5 1-1 1h-1l-4 4c-1 1-2 1-4-1l-1-1-2-1-2-2c-1-1-1-3 1-4v-2l-2-1c-1 0-2 1-1 2v2l-2-2-1-1h-4l1-1 1-1c1-2 0-2-3-5v-3c1-1 1-2-1-2l-1-1h5l2-1 5-2zm-96 2l-1 1c-1 0-1-3 1-2v1zm-82 0v-1 1zm140 0l2 1 2 1 2 1c1 2 1 2 2 1l2-1v-1h2v1l-1 2c-1 2-5 3-5 1l-2-1c-2-2-4-2-4 0l1 1c3 0 3 1 1 2-3 0-3 0-1 1 3 1 2 3-1 2h-2l5 2 1 1-1 1c-2-1-5 0-5 1l3 1h1l-2 1-7 1-3 3-1 1v4h1c0-2 4-7 6-7l6 1h2l5 2-3 1h-1-6l2 2 3 2h2l-1-1c-1-1-1-1 1-1s3 0 2 1-1 1 1 1l2 2h-1l-2 1c-2 1-5 0-5-1l-1-1c-2 0-2 1 0 2l1 1h1c2 0 3 1 1 2l-1 1-1 2-1 2-1 1v8h-2l-2-1h-1l-1-1v-1-2a16 16 0 01-2 0l-2-2-2-5c0-3 0-3-2-5l-2-6v-12-3c0-2 2-5 4-5l1-1 5-3h1l2-1h2zm82 0l2 1 1 2h2l-1 1-1 2h-1c-1 0-2 0-2-2 1-2 0-3-1-2 0 2-3 2-3 1 0-3 3-4 4-3zm16 0v2c-1 0-2-1-1-2h1zm-22 1l-1 3v3c1 3 0 7-1 7l-1-4v-7c-1-2 1-4 3-2zm-267 1h-1l1-1v1zm253-1v1l1-1h-1zm30 2l1 2 1 2 1 2v1l1 2v6l-4 5-3 3h-2l-1 1h-1c-2 1-4-1-2-2l1-1a124 124 0 013-8l1-2v-3-1l1-5 1-3 2 1zm24-1v2l1 2c1 0 1 1-1 2v1l-1 1-1 1h-2c-2 0-2-2 1-4 2-1 2-2 0-3l-1-1v-1h4zm-51 1v1l2-1h-2zm45 1h1l-1 4-1 1-1 1-1 1c0 2 1 3 2 2l1-1v1l1 1 2 2v2l-2 2-2 1c-2 0-1-2 0-3l1-1h-2c-2 0-4-4-2-6l-1-3c-1-2 0-3 2-1h1v-1c-1-1 0-3 1-3l1 1zm-244 0c2 0 1 2-1 2l-1 1-2 1c-2 0-2-2 0-2l2-1 1-1h1zm235 0c1 2 0 3-1 5l-1 1 1 1c1 1 1 3-1 2l-1-2-1-4c-1-2-1-2 1-2l2-1h1zm-232 1l-1 1 1-2v1zm63 0l4 2v3h-2l-1-1-1 1-2 2v2c1 1 1 1 2-1l2-1v3l1 3v2l-2-1-1-1-1-1v2l1 2 2 2h-2c-4-1-8 1-6 3v1l4 2 2 1 1 1v1l1 2-1 1-1-1c1-1 0-3-1-3h-5c-1 1 0 1 1 1 2 0 3 1 2 2h-1c-2 0-3 1-3 2 1 1-1 2-2 3h-1l-1 1c-2 0-2 0-1 1v1l1 1v3c1 2 1 2-1 2-1 0-2-1 0-2l-1-3-2-1-1-1-1-2 3-2h1l2 1h1l1-1h-1c-2-1-2-4 0-4l1-2-1-1h-1-2l-4 3-1 1a24 24 0 01-8 4l-2 1h-2c-2 1-4 1-5-1l3-3a229 229 0 003-1h2l2-2h1l2-1h2l4-2 3-2 4-4 2-1 1-3 1-1v-1l1-1-1-2v-4l1-2c1-3 3-5 4-3zm129 0l1 1 1-1h-2zm-176 1c1 1 1 2-1 2l-1-1c0-1 1-2 2-1zm152 0l1 2h3l-2-1-1-1h-1zm44 0c2 1 2 3 0 3-1 0-3-2-2-3h2zm-238 1c3 2 4 4 2 5l-3-2c-3-2-3-2-3 1s0 3 2 3c2-1 2-1 1 1l-3 2h-1l-4 2c-1-1-2 0-2 1l-2 1c-2 0-3-2-1-3h1l1-1a511 511 0 017-2c1-1 1-2-1-3l-1-1-1-1v2c1 1 1 2-1 2l-2-1-1-2c-2-1 2-4 6-3h2c1-2 1-2 4-1zm227 0c1 1 0 2-2 2-1 0-1 1 1 2s1 2-1 2l-1 1-2 1h-3c-3 1-6-1-4-2 1-1 1-2-1-2l-2-1c0-2 1-2 3-1 1 1 4 2 5 1l2-1 3-1c1-2 2-2 2-1zm-194 1l-1 1-2 1h-2l1-1 1-1h3zm4 0c0 2-1 3-2 2l1-3 1 1zm116 0v1l1-1h-1zm10 0c0 1-1 2-2 1v-1h2zm97 2v1l-1-1h1zm16 0c0 1-1 2-2 1s0-1 1-1h1zm-230 1l-2 1c-1-1 0-2 1-2l1 1zm192 0v2h-2c-2-2 1-4 2-2zm-211 0l-1 2c-1 0-2-1-1-2h2zm12 0l2 1c0 2-1 3-2 1h-2l1 1v2h-1c-2-2-2-3-1-3l1-2h2zm181 1l3 1v-1h-3zm-209 0l-1 3c-2 1-3 2-2 3l2-1c3-2 3-2 4-1h1l1 2h-2l-1-1-3 2-2 1v3h-3l-2 1-1 2-3-1c0-1-1-2-2-1l-1 1-1 2c1 1 2 1 1 2l-1-1-1-1h-4l-1-2 3-3 1-1 2 1c1 1 1 1 1-1 0-1 0-2 2-2l2-2c1-1 3 0 3 1l-1 1v2l-1 1c-2 1-2 1 0 1h1l1-1 1-1 2-1c1 0 1-1-1-3s-2-4 0-4h1l4-1h1zm10 0v1c-1 1-2 1-1-1h1zm250 1h4c0 1-1 2-3 2-1 0-3-1-2-2v-1l1 1zm-30 0v2l-2-1c0-2 1-2 2-1zm-76 0h1v4l-1 1c0 1-1 2-2 1l1-2v-3c-1-1-1-2 1-1zm-147 2h-1 1zm78 0l-1 1-1-1h2zm56 0v1h2v-1h-2zm-64 0l1 1h1l-2-1zm103 2v1l2 2 1 1 2 2 2 1 2 2 1 1 1 1c1 2 1 3-1 3v2h-1l-2-1-1-2c-1 0-2-1-1-2 1-2 0-4-1-2h-2l-1-1v-1l-1-1v-2l-2-2v-3l2 1zm82 1c0 1 0 2-1 1v-3 1l1 1zm-47-1v1l-1 1h-1v-1l1-1h1zm6 0v1l-2 2-1 1v-2l1-1c0-1 1-2 2-1zm6 0h1l-1 1h-2c-1-1 0-1 1-2l1 1zm3 0l-1 1-1-1h2zm21 0v1h-2c0-1 1-2 2-1zm-141 0l1 2 1 1v0c-1-1-2 0-2 2h-1l-1 1-1 2-2 2c-1 1-2 0-5-2v-1l1-1 2-2 1-1 1-1 1-1c1-2 2-2 4-1zm137 0v4l-1 2v1c-1 2-2 3-3 2v-3l3-2v-1c-1 0-2-2-1-3h2zm-162 1v2l-2-1 2-1zm126 0v2c-1 0-3-1-2-2h2zm-18 1l1 1v-1h-1zm-118 1v2l1-1c1-1 0-1-1-1zm31 1h-1l-1 1-1 2-1 1c1 0 1 1 4-2l2-2h-2zm154 0l2 1v2l-1 1-1-1h-1l-3 2c-2 0-3-2 0-3l2-1c0-2 1-2 2-1zm-9 1v1l-1 2-2 3-1 1-1-1c-1-1-1-2 1-2l1-2 1-1v-1c0-1 2-2 2 0zm-288 0v1l-3-1h3zm9 0c2 0 5 2 5 4v1c2 1 1 2 0 2-2-1-3 0-3 2l1 1c-2 1-1 2 1 2s2 1 0 2h-3l-4-3v-3c2-2 1-4 0-4s-2 1-1 3c0 2-2 4-4 4l-3 2-3 2c-1-1 1-4 3-5 3-2 5-5 5-6l3-5 3 1zm113 1h-2 2zm122 0h2l1 3-3 3-3 2-1 1-2 2c-3-3-4-3-5-3v3c2 0 2 2 0 2h-4c-1-1 0-1 1-2v-3c2 0 3-2 1-2-2-1-2-3 0-3l1 1h1v-3l2-1h9zm-93 1h2v4c2 1 1 3 0 3l-1-1-1-2-1-1-1-2-2-1 1-1 3 1zm-17 0h-1 1zm-9 0l-1 1v-1h1zm-9 2h1l-1 1h-4l-1-1 1-1c1-1 3 0 4 1zm4 0l1 1 1 1 1 1v4l-1 1-2 3c-1-1 0-4 1-4v-4l-1-1-1-1-1-2c1-1 1 0 2 1zm180 0c1 0 1 2-1 1l1-2v1zm-237 0l1 1h3l2-1c2 0 2 1 1 2v5l-2-1-1-1-3 2h-1l-1 1c-1 1-3 0-3-1v-1l1-1h1l2-2h-3l-3 1-2-1c-2 0-2-1-1-2 3-1 7-2 9-1zm63 0c1 0 1 0 0 0 0 1 0 0 0 0 0-1 0-1 0 0zm20 0c1 1 0 4-1 4l-1-1c-2 0-2-2 0-2l1-1h1zm-118 1h-2 2zm224 0l2 1 2 1h1v3l-2 1v3l-1 3-4-1h-2c-5 0-7-4-3-8 3-3 4-4 7-3zm45 0c2 2-1 4-3 3h-1c-1 1-3 2-3 0l2-1c1 1 3 0 3-1l2-1zm-159 1l3 1h1l2 1 1 2h-7-2l-2-1h-1c-1-1 0-2 1-1l1-1 1-1h2zm142 0l1 2-1 2-1 1h-1l-2 1-2 1h-3c-2 0-4-2-3-3l1-1 2-1 1-1c2-2 7-2 8-1zm-82 1l1 1h-2c-2-2-1-3 1-1zm-124 0h1l-2 2-1-1c-1-1 0-2 2-1zm76 0l-1 2-1-2h2zm116 1l-1 1v3l2 1 1 1 1 1h-3c-2-1-3-1-2 1 2 1-2 2-5 1l-3-3 1-1v-1c2-4 4-5 5-4l1-1 3 1zm-247 0h-2l1-1 1 1zm206 0h1l-1-1v1zm24-1l1 1v-1h-1zm38 1v2h-3c0-1 2-3 3-2zm-208 1l2 1v1h-2l-2-1-1-1h3zm40 0v1l-1-1h1zm9 0l2 1 2 1c0 2-4 2-6 0-1-2 0-3 2-2zm-52 1l-2 2c-1 0-2-1-1-2h3zm122 1h2l1-1v1h5l-1 1c-1 0-2 1-1 2l1 1h-2c0-2-2 1-2 4s0 3-1 1c-2-3-2 3 0 8l2 4 1 1c0 2-1 2-2 1l-1-2-2-3v-1h-2c0 2-1 3-2 3l-1-1v-2c-2 0-3-1-3-2l-2-2v-6-2l1-1v-1c1-2 5-4 5-3h4zm20 0l-1 2-1 3c1 1 0 3-3 6l-1 3c0 2 3 0 3-2v-2l1-1 1 1c2 2 2 4 1 3h-2v1l1 2 2 1v1h-1l-1-1-1-1h-2l-1 2-1-2v-1c-1 0-2 0-2-2 0-3-1-4-1-2s-2 2-2 0h-1v2l2 4 2-2v3l-2 1h-1c-1-1-2 0-2 1h-1l-2-2v-2h2l1 2-1-3-1-4 2-5 4-4h1c1 1 2 0 2-1h2l2-1h2zm76 2l-1 2v-3l1 1zm-52 0c-1 0-1 0 0 0 0-1 0-1 0 0zm46 0l-2 2v-2h2zm-91 0h0zm24 0v3l-2-1c0-2 2-3 2-2zm-152 1l1 2 1 1v1l-2 1h-3v2l2 1h-5l-1 2-1 1c-2 0-2-2-1-3l1-1 1-2c2-3-1-2-5 2l-3 1-2 2c-4 4-5 4-3 0s7-8 10-8l3-1 1-1h6zm170 0l2 1 1 1 2 1 1 1 1 1c-1 1-4-1-6-3h-1v3l2 2h2l5-1v1c1 2-2 3-4 2l-1-1-1 1h-1l-2-1-1-1c0-2 0-2-2-2s-3-2-1-3l2-2h2zm43 0c1 1 0 2-1 2l-1-2h2zm-22 0l1 2 1-1c0-2-2-2-2-1zm-187 1h3c2-1 4 0 4 2s-1 3-5 2c-3 0-3 0-3-2l-1-1v-1h2zm178 0h0zm-26 1h1l1 1 4 5c-1 1-2 0-4-2a186 186 0 00-3-3l-1 1v1l2 1v1l1 1 1 1 1 1h2l1 2c-1 1-3 1-4-1l-1-2-3-3-1-1c-2 0-1 2 0 3l1 1 1 1v2l-1-1h-1l-1-2-1-1v-3l1-1c1-2 2-3 4-2zm-114 0l-1 1v-1h1zm165 0l-2 1c-2-1-1-1 1-1h1zm16 0v1c-1 1-3 0-2-1h2zm-113 0l1 2v1l1 1v-2l-1-1-1-1zm91 1v2l-1 1-1 1-1 1h-2l-2 2c-2 3-6 4-5 1 0-2-2-3-5-1l-3 1c-2-1-1-3 1-3l3-1v-1h1l2-1c2 0 1 0 2 2s3 2 4 0l1-2v-1h3l2-1h1zm11 0l-1 2c-1 2-2 2-3 0-1-1 0-2 2-2h2zm5 1v3c-1 1-3-1-3-3h3zm-35 1c1 1 1 3-1 2l-2-2h3zm25 0c0 1 0 2-2 2l-1 2c0 2-2 3-3 2l-2-1v-1l3-3c1-1 4-2 5-1zm-193 1c0 1-1 2-2 1v-2l2 1zm16 1c2 1 1 2-1 3l-2 2h-3l-1-1c-1-1 0-5 1-5h5l1 1zm12-2l-1 2-1-1 2-1zm-24 1v-1 1zm147 0v-1 1zm-43 0c-1 1-1 5 1 5v-5h-1zm-84 2l-1 1v-2c1-1 1-1 1 1zm-32-1v2l-1-1 1-1zm-3 1v1h-1l1-2v1zm123 1v5l1-4c0-2-1-2-1-1zm89 0c1 1 0 2-1 2l-2 1h-2l1-1 2-2h2zm-7 0v3l-2 1v1-2-1c-1-2 1-3 2-2zm-200 1l-1 1v-2l1 1zm14 1l1 1 1 1-3 2-1 1h-4v3l1 1-1 1c-1 1-1 1 1 3l2 2h-2-2c-2 1-5 0-4-1l1-1 2-1-3-3-1-1-1-1-2-3 1-1 1-1h1l2 1 2 1h1v-1c-1 0-1-1 1-2 3-3 4-3 6-1zm-21-1v2h-1l1-2zm117 2l1 2c2 2 1 4-1 2l-1-1-1-3 1-1c1-1 1-1 1 1zm60-1v1l-2-1h2zm-180 1v1c2 0 1 1-2 2-1 1-2 1-4-1v-2h2l3 2v-1l-1-2 2 1zm33-1c1 1 1 4-1 4v-2c0-2 0-3 1-2zm121 1l1 1 1 1c-1 2-4 0-4-2s1-2 2 0zm46-1l-1 2c-2 1-3 0-2-2h3zm-10 1v2h-4c-1-2 2-3 4-2zm-21 0v2l-2 1-2 1-1 1h-3c0-1 1-2 2-1l1-1 2-1 1-1 2-1zm-10 2l-1 2-1-1 2-1zm36 2c2 1 1 1 0 1l-2-2 2 1zm-18 0l-1 1-1-1h2zm-147 1h-2v1c0 1-1 2-2 1l-1 1-2 1c-2 0-2 0-1-2h1l2-1 2-1h1c1-1 2-2 2 0zm116-1v2c-1 0-2-1-1-2h1zm4 0l-1 2v-1l1-1zm23 2c0 1-2 2-3 1s0-2 2-2l1 1zm-13 1h-2 2zm-29 0l1 1c-1 1-2-1-2-1v-1l1 1zm-119 2l-1 2-2 3v1l-1 2v2l-1 1c0 1-1 2-2 1l2-9v-2l3-2 2 1zm154 0c0 1 0 2-2 2v-2h2zm-12 3l-1 1-1-2c1-1 2 0 2 1z" clip-rule="evenodd"/>
</svg>
